<?xml version="1.0" encoding="UTF-8"?>
<!-- Created with Inkscape (http://www.inkscape.org/) -->
<svg version="1.1" viewBox="0 0 158.07 277.62">
 <g transform="translate(-21.222 -12.752)" fill="#80b3ff">
  <path transform="scale(.26458)" d="m372.55 1001-1.2363 2.7773c-1.2517 2.8104-1.2275 3.7637 0.0977 3.7637 0.40041 0 1.0319 0.3676 1.4043 0.8164 0.55598 0.6699 0.21771 1.4588-1.8926 4.416-1.4134 1.9808-2.7741 3.6016-3.0254 3.6016s-1.4049-0.3952-2.5625-0.8789c-2.3864-0.9971-5.8698-0.5654-12.301 1.5234-2.8874 0.9379-3.9756 1.0444-6.1855 0.6075-3.4718-0.6865-3.8895-0.2406-3.4746 3.7285l0.32812 3.1406-5.334 0.707c-2.9338 0.3883-5.406 0.6105-5.4941 0.4942-0.0881-0.1164-0.7169-1.0189-1.3984-2.0059-1.4312-2.0726-2.4445-2.2208-4.7539-0.6914-0.91104 0.6034-1.8208 1.0996-2.0215 1.1016-0.20066 0-0.88927-1.0821-1.5312-2.4082-1.274-2.6318-0.76286-2.4223-11.072-4.5079-4.1073-0.8308-4.8179-0.4159-3.5332 2.0684 0.74171 1.4343 0.68623 1.9332-0.6543 5.9746-0.80425 2.4247-1.7456 4.5914-2.0918 4.8164-0.34621 0.2249-2.2448 0.6624-4.2188 0.9707-3.491 0.5453-3.5877 0.606-3.5859 2.209 1e-3 1.2707 0.27552 1.6864 1.2012 1.8184 2.0182 0.288 2.5092 1.4108 2.0879 4.7832-0.2533 2.0275-0.7286 3.3209-1.3887 3.7832-0.5516 0.3864-1.3008 1.8895-1.666 3.3398-0.5284 2.0985-1.0842 2.9017-2.7188 3.9336l-2.0547 1.2969-0.39649 5.4082c-0.21838 2.9751-0.51129 5.596-0.65234 5.8242-0.14105 0.2283-1.5971-0.087-3.2344-0.6992l-2.9766-1.1133-4.0156 2.0235-4.0176 2.0214-1.8223-0.9804c-1.0021-0.5397-1.9144-0.8787-2.0293-0.7539-0.11489 0.1247-1.3652 1.5875-2.7773 3.2519l-2.5684 3.0254-4.041-0.168-4.043-0.1699-0.98047 2.6641c-0.53891 1.4657-1.0088 3.6583-1.0449 4.873-0.0363 1.2148-0.26798 2.5208-0.51367 2.9004-0.60866 0.9404-3.2442 0.8702-4.5547-0.1211-1.5159-1.1466-2.2742-1.035-2.6465 0.3887-0.39963 1.5282 1.6419 4.7418 3.2832 5.168 0.63631 0.1651 2.1218 0.2201 3.3008 0.123 2.0695-0.1705 2.158-0.2619 2.5605-2.6367 0.45445-2.681 2.0892-4.7728 3.3496-4.2891 0.97907 0.3757 1.5039 2.8365 1.5039 7.0449 0 2.8897-0.16266 3.3321-1.6992 4.625-0.93434 0.7863-2.0615 1.4297-2.5059 1.4297s-1.7821 0.4962-2.9726 1.1036c-1.1905 0.6073-2.6404 1.1054-3.2227 1.1054-1.3435 0-2.5201 1.3858-2.1016 2.4766 0.38047 0.9915 1.3781 1.0554 3.4941 0.2246 0.85489-0.3356 3.4177-0.6707 5.6953-0.7441 3.0498-0.098 4.8565-0.4838 6.8594-1.461 2.695-1.3148 3.0304-1.7983 3.8672-5.5957 0.24405-1.1075 0.98279-1.8047 2.7793-2.623 3.0122-1.3722 2.703-1.3905 4.4902 0.2656 1.2527 1.161 2.0248 1.3801 4.8594 1.375 1.8537 0 4.3217-0.1635 5.4824-0.3555 2.0849-0.3447 2.1073-0.3766 1.9316-2.6172l-0.17773-2.2675 2.4844-0.025c1.3666-0.015 2.984-0.3016 3.5938-0.6387 0.60975-0.3371 2.4728-0.9906 4.1406-1.4531 1.6679-0.4626 4.4001-1.3354 6.0703-1.9375s5.5198-1.4046 8.5566-1.7832c5.8016-0.7234 8.9281-1.708 9.9785-3.1446 1.1904-1.6278 2.4453-0.3948 2.4453 2.4024 0 2.1921 0.14147 2.5217 0.9668 2.2617 3.4364-1.0825 3.3895-1.0866 3.748 0.3418 0.22526 0.8975-2e-3 1.9217-0.64453 2.9023-0.98096 1.4972-0.97793 1.5073 0.15234 0.9024 0.62893-0.3368 1.5624-1.2521 2.0742-2.0332 0.51182-0.7812 2.1571-2.7161 3.6562-4.3008 2.7513-2.9083 3.2432-4.0966 2.1484-5.1914-0.32939-0.3292-0.51569-1.1879-0.41406-1.9063 0.22726-1.6063 3.0146-2.2094 3.5664-0.7714 0.29553 0.77 0.49267 0.7862 1.5156 0.1211 0.64661-0.4204 2.4598-1.0693 4.0293-1.4434l2.8535-0.6816 0.29688-3.6817c0.16297-2.0255 0.31685-4.1797 0.34179-4.7871 0.0253-0.6167 0.87699-1.6473 1.9297-2.334 1.6458-1.0736 2.3968-1.1944 5.916-0.9472 2.2167 0.1557 4.5634 0.3964 5.2148 0.5351 1.2681 0.2702 4.8626-1.0124 5.4356-1.9394 0.19052-0.3085 0.93323-0.5606 1.6504-0.5606 0.99747 0 1.388 0.3857 1.6641 1.6426 0.19846 0.9036 0.20395 1.8979 0.0117 2.209-0.48912 0.7914 0.51485 0.709 4.3086-0.3555 2.5448-0.7141 3.6407-0.7873 4.8672-0.3242 0.96234 0.3632 1.582 0.3899 1.582 0.068 0-0.291 0.60564-1.1348 1.3457-1.875 0.7401-0.74 1.6737-2.0297 2.0742-2.8652 0.55117-1.1499 1.2643-1.608 2.9336-1.8887 1.8965-0.319 2.4189-0.1706 3.7246 1.0606 0.83512 0.7873 1.5176 1.7812 1.5176 2.209 0 1.3497 1.7846 3.8652 3.1992 4.5097 1.0853 0.4945 1.5506 0.4487 2.2988-0.2285 1.2408-1.1228 2.7526-1.0753 3.7285 0.1172 0.70824 0.8656 0.74892 0.7643 0.39062-0.9668-0.21997-1.0629-0.42357-2.8004-0.45312-3.8633-0.045-1.6168 0.15394-1.9623 1.2188-2.1133 1.8565-0.263 2.8691 0.8618 2.8691 3.1915 0 2.3922 0.43185 3.021 1.4785 2.1523 0.4972-0.4126 0.63873-1.2257 0.41797-2.4023-0.25965-1.384-0.12007-1.8616 0.63281-2.1504 0.53212-0.2041 1.2254-0.1141 1.5391 0.1992 0.77586 0.7758 2.5566 0.7228 2.5566-0.076 0-0.3556-0.32233-1.0401-0.7168-1.5195-0.39447-0.4795-1.319-2.238-2.0547-3.9082-0.73572-1.6703-1.9286-4.0016-2.6504-5.1817-1.0569-1.728-1.1993-2.392-0.73633-3.4082 0.76978-1.6894 2.233-1.2617 5.0547 1.4766 1.2152 1.1794 2.5601 2.1445 2.9883 2.1445 0.91095 0 3.404 2.8131 3.9121 4.4141 0.59154 1.8637 1.222 1.2413 1.5957-1.5762 0.45482-3.4285 1.9349-4.9518 3.9297-4.043 0.75799 0.3455 1.377 1.0504 1.377 1.5645 0 1.0317 1.5291 2.9531 2.3496 2.9531 0.28686 0 1.3276-0.8079 2.3125-1.7949 1.6433-1.6466 1.8173-2.1577 2.0996-6.2109 0.19237-2.7612 0.845-5.8401 1.7422-8.211 1.7608-4.6529 1.7636-4.7656 0.0703-4.7656-0.98465 0-1.6244-0.4996-2.2871-1.793-1.0783-2.1046-1.7142-2.6037-3.3418-2.6152-0.95342-0.01-1.4592-0.693-2.4844-3.3691-1.2446-3.2487-2.6636-4.7791-3.7852-4.086-0.29745 0.1837-0.53906 0.6676-0.53906 1.0762s-1.3961 1.5316-3.1016 2.4941l-3.1016 1.75-2.0625-1.6582c-1.9065-1.532-2.2392-1.616-4.416-1.1269-2.9102 0.6538-4.4355 0.219-4.4355-1.2637 0-0.9601-0.2309-1.0729-1.5195-0.7441-0.83513 0.2131-2.3032 0.3691-3.2637 0.3457-0.9605-0.023-3.4933 0.7006-5.6289 1.6093-4.5062 1.9175-4.92 1.9585-7.4746 0.7403-2.029-0.9676-2.2622-1.4739-2.8633-6.2656-0.20939-1.6703-0.61718-3.4987-0.9082-4.0625-0.49512-0.9594-0.64197-0.9237-2.2734 0.5683-3.7928 3.4684-3.932 3.5407-5.6562 2.9238-1.0715-0.3832-1.9567-1.3275-2.6484-2.8222-0.67977-1.4689-1.6335-2.4959-2.7598-2.9727zm0.52734 54.277c-0.24824 0.036-0.69018 0.2341-1.3555 0.5782-0.91368 0.4725-1.6562 1.3049-1.6562 1.8554 0 1.6576-0.53745 1.7093-3.168 0.3106-1.9026-1.0116-3.3747-1.3379-6.0254-1.3379-4.6934 0-5.688 0.9504-5.7832 5.5215-0.038 1.8221-0.11529 3.6243-0.17187 4.0039-0.32705 2.1937 3.2184 2.7751 6.123 1.0039 2.011-1.2262 2.4004-1.0293 2.4004 1.2246 0 1.5698 0.0471 1.6004 1.2422 0.8027 0.97236-0.6489 1.2422-1.3535 1.2422-3.2421 0-2.3347 0.0525-2.4077 1.6387-2.2911 2.1438 0.1576 4.0491-1.6432 4.457-4.2129 0.17307-1.0902 0.54885-2.4141 0.83594-2.9414 0.512-0.9404 0.63444-1.3347 0.2207-1.2754z" stroke-width=".55215"/>
  <g stroke-width=".14609">
   <path d="m71.038 282.53c0.0031-0.0603 0.35548-0.49861 0.78299-0.97412l0.77729-0.86457 0.94973 0.67626 1.1272-0.54959c1.1-0.53632 1.1383-0.54389 1.5836-0.31358 0.25102 0.1298 0.5254 0.23601 0.60974 0.23601 0.09559 0 0.15334-0.49 0.15334-1.3009v-1.3009l0.63223-0.37051c0.56738-0.3325 0.65087-0.4538 0.81397-1.1826 0.10748-0.48025 0.26003-0.81208 0.37336-0.81208 0.20192 0 0.36644-0.43705 0.36979-0.98235 0.0013-0.21563-0.14794-0.40249-0.44365-0.5554-0.42089-0.21766-0.4432-0.27262-0.40175-0.98984l0.04389-0.75939 0.58436-0.10447c0.3214-0.0575 0.81813-0.14023 1.1039-0.18392 0.49766-0.0761 0.53344-0.12276 0.8512-1.1094 0.31259-0.97056 0.31779-1.0511 0.09028-1.3984-0.13278-0.20264-0.20724-0.45752-0.16546-0.5664 0.05403-0.14081-0.2403-0.29184-1.0197-0.52322-0.93823-0.27853-1.315-0.50227-2.6217-1.557l-1.5261-1.2317-0.6831 0.23276c-0.37571 0.12801-0.82441 0.23275-0.99712 0.23275-0.3296 0-2.0707-0.66165-2.3572-0.89579-0.31951-0.26109-0.3337-1.0533-0.02491-1.3902 0.26943-0.29396 0.27303-0.34197 0.05701-0.75971-0.12683-0.24526-0.2306-0.77664-0.2306-1.1808 0-0.66307 0.03589-0.74392 0.36709-0.82706 0.2019-0.0507 0.56084-0.0637 0.79763-0.0289 0.38302 0.0562 0.44045 0.0137 0.52035-0.38544 0.0494-0.24674 0.12006-0.55689 0.15702-0.68923 0.04428-0.15854-0.10894-0.34948-0.44917-0.55976-0.30077-0.18588-0.51638-0.43616-0.51638-0.59941 0-0.15413-0.09404-0.28025-0.20897-0.28025-0.11494 0-0.22998-0.14792-0.25566-0.3287-0.0423-0.29787-0.12643-0.3287-0.89666-0.3287-0.77037 0-0.88668-0.0427-1.2418-0.45544-0.21548-0.25048-0.66621-0.56024-1.0016-0.68833l-0.60985-0.23289-0.10233 0.95558c-0.06624 0.61856-0.17592 0.98381-0.31097 1.0356-0.11475 0.044-0.58058 5e-3 -1.0352-0.0859-0.62021-0.12456-1.0468-0.12386-1.7088 3e-3 -0.48524 0.0928-0.90402 0.18639-0.93062 0.20791-0.0266 0.0215 0.02416 0.17463 0.11279 0.34024 0.13819 0.25821 0.11387 0.31203-0.17078 0.37786-1.9044 0.44039-2.3452 0.50356-2.9427 0.42166-0.62407-0.0855-0.72702-0.0497-1.4708 0.51188-0.43989 0.33212-0.86606 0.60386-0.94702 0.60386s-0.22511-0.14791-0.32032-0.3287c-0.2393-0.45441-0.35962-0.51195-1.2981-0.62088-0.45239-0.0525-0.89356-0.13972-0.9804-0.19382-0.08683-0.0541-0.41759-0.65715-0.73502-1.3401-0.31743-0.68296-0.71705-1.3655-0.88805-1.5167-0.30688-0.27139-0.32245-0.26806-1.2034 0.25671-0.49087 0.29241-0.9483 0.49717-1.0165 0.45501-0.06821-0.0422-0.19884-0.43707-0.2903-0.87759-0.17396-0.83796-0.28194-0.94556-0.58383-0.58181-0.10953 0.13198-0.42917 0.21913-0.80363 0.21913-0.57367 0-0.6753-0.0627-1.3138-0.81003-0.63449-0.74268-1.1041-0.9787-0.96792-0.48651 0.03056 0.11049 0.11738 0.47707 0.19293 0.81465 0.08014 0.35805 0.34885 0.84466 0.64495 1.1679 0.38013 0.415 0.49676 0.66158 0.46447 0.98196-0.06894 0.68403-0.38498 0.61489-1.202-0.26299-0.75449-0.81071-1.2488-1.0825-1.0274-0.565 0.29353 0.68634 0.2443 1.0078-0.21333 1.3928l-0.45355 0.38164 0.60337 0.57977c0.58258 0.5598 0.59524 0.59138 0.36745 0.91661-0.32802 0.4683-0.29708 1.6105 0.07463 2.7553 0.16958 0.52227 0.32168 1.2783 0.33801 1.68 0.01633 0.40175 0.16434 0.99341 0.32893 1.3148 0.16458 0.3214 0.41772 0.81445 0.56254 1.0957 0.14481 0.28123 0.50649 0.79036 0.80373 1.1314 0.34566 0.39662 0.57416 0.83098 0.634 1.2052 0.07324 0.45802 0.15746 0.58515 0.38764 0.58515 0.18517 0 0.34969-0.14629 0.44426-0.39505 0.08261-0.21728 0.37681-0.71048 0.65379-1.096 0.27697-0.38553 0.50359-0.75898 0.50359-0.8299 0-0.18919 0.67708-0.60083 0.98827-0.60083 0.41292 0 0.61872 0.29775 0.61872 0.89515 0 0.41427-0.09208 0.61698-0.38492 0.84732-0.21171 0.16653-0.50366 0.30278-0.64878 0.30278-0.31461 0-0.42863 0.16213-0.57716 0.82072-0.12275 0.54426-0.06195 0.58984 0.36051 0.27031 0.19579-0.14809 0.65434-0.21449 1.4812-0.21449 1.3828 0 1.7445 0.19586 1.8887 1.0226 0.07582 0.43479 0.04008 0.53318-0.23879 0.6574-0.61936 0.2759-0.5024 0.51702 0.20383 0.42022 0.39318-0.0539 0.77567-0.02 0.9743 0.0863 0.30171 0.16147 0.31925 0.24189 0.22668 1.0395-0.08756 0.75448-0.06885 0.86447 0.14712 0.86447 0.1361 0 0.42195 0.12267 0.63522 0.27262 0.42813 0.30099 1.3075 0.47827 1.4255 0.28739 0.04138-0.067 0.39025-0.12174 0.77526-0.12174 0.77898 0 1.564-0.22189 1.9429-0.54922 0.22434-0.19379 0.2942-0.17115 0.6885 0.22315l0.43883 0.43882-0.63558 1.2456c-0.68795 1.3482-0.67178 1.5634 0.11745 1.5634 0.23936 0 0.65416 0.0792 0.92178 0.17595 0.81655 0.29526 1.8831-0.0218 3.1371-0.93274 0.58845-0.42743 1.1837-0.89053 1.3228-1.0291 0.13911-0.13856 0.42918-0.29616 0.6446-0.35023 0.51085-0.12822 0.83662 0.27576 0.72122 0.89436-0.04497 0.24105-0.12438 0.69121-0.17649 1.0004-0.08277 0.49111-0.17508 0.59653-0.73098 0.83483-0.34994 0.14999-0.63625 0.36221-0.63625 0.47157 0 0.10938-0.16435 0.35328-0.36522 0.54198-0.40576 0.38119-0.43283 0.55418-0.21148 1.3512 0.25324 0.91186 1.7557 1.7653 3.2428 1.842 0.22096 0.0114 0.40431-0.0286 0.40744-0.0888z"/>
   <path d="m108.15 278.36c-0.19079-0.1908-0.21733 0.0206-0.0545 0.43453 0.10151 0.25811 0.10718 0.25797 0.15979-4e-3 0.03-0.14914-0.0174-0.34308-0.10525-0.43096z"/>
   <path d="m122.19 274.82c0.12756-0.27996 0.1268-0.4106-3e-3 -0.54053-0.3734-0.3734-0.19451-0.9471 0.44954-1.4417 0.34148-0.26221 0.72893-0.60858 0.861-0.7697 0.22121-0.26988 0.26721-0.27535 0.58435-0.0694 0.61543 0.39967 2.0205 0.85299 2.6506 0.85519 0.95474 3e-3 1.4468 0.34994 1.7567 1.2372 0.0276 0.079 0.26674-0.0385 0.53141-0.26121 0.44838-0.37729 0.55465-0.40113 1.5573-0.34943 1.2859 0.0663 1.4166-0.031 1.7459-1.2999 0.12313-0.47451 0.31737-0.95696 0.43165-1.0721 0.18031-0.18169 0.24628-0.17452 0.49906 0.0542 0.41719 0.37756 0.70633 0.19557 1.0986-0.6915 0.26107-0.59033 0.85678-1.2951 2.4777-2.9313 1.2872-1.2993 2.2729-2.4264 2.4841-2.8403 0.32742-0.6417 1.7034-2.078 3.3563-3.5032 0.60541-0.52203 0.81242-0.6161 1.3559-0.6161 0.38748 0 0.6624-0.0723 0.69441-0.18261 0.86532-2.9818 1.7077-4.3957 3.0293-5.0844 0.1879-0.0979 0.67033-0.45371 1.0721-0.79065 0.40175-0.33693 1.2254-0.94472 1.8304-1.3506 0.60497-0.40592 1.1733-0.828 1.263-0.93797 0.0897-0.10996 0.66418-1.1061 1.2767-2.2136 0.6125-1.1075 1.3081-2.2822 1.5458-2.6103s0.47264-0.81219 0.52206-1.0756c0.0629-0.33522 0.27215-0.61456 0.69731-0.93084 1.2009-0.89336 1.5372-1.2802 2.3636-2.7193 1.2984-2.2611 1.7715-2.9178 2.9338-4.0726 0.89541-0.88962 1.6743-2.0433 1.4909-2.2084-0.0491-0.0442-4.4359 2.3112-5.3065 2.8492-0.66251 0.40946-1.0909 0.84564-1.4154 1.4411-0.23776 0.43633-0.28991 0.45682-1.1687 0.4592l-0.91986 2e-3 -0.30836 0.76448c-0.16961 0.42046-0.43391 1.0932-0.58734 1.4949-0.24738 0.64773-0.35307 0.75668-0.93339 0.96213-0.35994 0.12742-0.84695 0.31104-1.0823 0.40804-0.2353 0.097-1.1963 0.18998-2.1356 0.20659-1.5321 0.0271-1.721 0.0594-1.8366 0.31361-0.0708 0.15585-0.42462 0.49417-0.78619 0.7518-0.53305 0.37985-0.85778 0.48838-1.7168 0.57383-1.0068 0.10016-1.0852 0.0856-1.5811-0.29255l-0.5217-0.39792-0.32413 0.30451c-0.17827 0.16748-0.4135 0.55247-0.52274 0.85553-0.32837 0.91104-0.8307 1.5876-1.368 1.8426-0.27929 0.13253-0.54111 0.32778-0.58183 0.43389-0.0407 0.1061-0.45874 0.277-0.92895 0.37977-0.47021 0.10276-1.1426 0.28784-1.4943 0.41129-0.73424 0.25771-2.9839 0.31597-4.7351 0.12262-0.824-0.091-1.2926-0.0746-1.6988 0.0595-0.59627 0.1968-1.2016 0.0517-2.9825-0.71476-0.77694-0.33438-1.8937-0.39581-2.5349-0.13945-0.22619 0.0904-0.75407 0.17259-1.1731 0.18261-0.48058 0.0115-0.84738 0.10381-0.99363 0.25009-0.21172 0.21177-0.17607 0.27757 0.41106 0.75869 0.60792 0.49815 0.68634 0.52231 1.4415 0.44437 0.88241-0.0911 1.4848 0.12771 2.2038 0.80041 0.46475 0.43482 0.49277 0.63084 0.16225 1.1353-0.22705 0.34651-0.22271 0.38339 0.0835 0.70933 0.22901 0.24376 0.30932 0.48415 0.27602 0.82616-0.0395 0.40556-0.12215 0.5017-0.51913 0.60383-0.25969 0.0668-0.81848 0.30856-1.2418 0.5372-0.47424 0.25618-1.0913 0.44695-1.6079 0.49709-0.83803 0.0813-0.8386 0.0811-1.7166-0.66134-0.517-0.43721-0.87825-0.85938-0.87825-1.0264 0-0.3707-0.37686-1.1564-0.74342-1.5498-0.35714-0.38333-0.71747-0.40462-0.71747-0.0424 0 0.33564-0.33335 0.62129-1.1243 0.96346-0.69599 0.30107-1.0145 0.23653-1.1998-0.24315-0.14787-0.38287-0.69056-0.90146-1.0929-1.0444-0.18691-0.0664-0.34073-6e-3 -0.47607 0.18738-0.10997 0.157-0.34728 0.30639-0.52736 0.33197-0.25796 0.0367-0.39851 0.24914-0.66255 1.0016-0.31027 0.88425-0.40513 1.0026-1.2788 1.595-0.75039 0.50886-1.1041 0.65321-1.7274 0.7049-0.71251 0.0591-0.80425 0.10784-1.0083 0.5358-0.20934 0.43898-0.20416 0.50291 0.0767 0.94642 0.20935 0.33066 0.32258 0.80957 0.37145 1.5711l0.0703 1.0954-0.49484-0.0496c-0.42007-0.0421-0.5019 2e-5 -0.54153 0.27906-0.0257 0.18078 7e-3 0.32902 0.073 0.32943 0.0659 0 0.30723 0.15076 0.53641 0.33416 0.41535 0.33237 0.41593 0.33522 0.18261 0.89364-0.12874 0.30812-0.23407 0.86756-0.23407 1.2432 0 0.60145 0.068 0.7494 0.57013 1.2397 0.43121 0.42106 0.59389 0.71515 0.66763 1.2069 0.0637 0.42512 0.18244 0.67491 0.34293 0.72166 0.83996 0.24468 1.2764 0.63289 1.5666 1.3934 0.2495 0.65395 0.36419 0.79011 0.69849 0.8291 0.277 0.0323 0.50746 0.21694 0.74956 0.60044 0.28304 0.44836 0.46292 0.5719 0.94501 0.64899 0.64761 0.10356 0.69802 0.16968 0.39524 0.51853-0.33349 0.38421-0.96852 2.5233-0.96852 3.2625 0 0.65991 0.0194 0.69325 0.40174 0.68993 0.22096-2e-3 0.65382-0.062 0.96191-0.13348 0.41166-0.0955 0.69938-0.0718 1.0853 0.0894 0.50167 0.20961 0.53629 0.20467 0.77401-0.11047 0.22618-0.29986 0.28935-0.31313 0.69371-0.14564 0.24468 0.10135 0.55842 0.30974 0.69721 0.46311 0.38655 0.42712 1.192 0.3753 1.4042-0.0904z"/>
   <path d="m89.565 270.71 0.78284-0.094-0.0883-0.67171c-0.07355-0.55947-0.03349-0.73918 0.23978-1.0757 0.32429-0.39937 0.3376-0.40203 1.1502-0.22925 0.73181 0.15559 0.92446 0.14123 1.7531-0.13076 1.4221-0.4668 2.6516-0.65667 3.1139-0.4809 0.21594 0.0821 0.47052 0.14882 0.56572 0.14828 0.24546-1e-3 0.94133-1.0577 0.74083-1.1246-0.08859-0.0295-0.27522-0.13714-0.41473-0.23916-0.23789-0.17395-0.22939-0.24398 0.13681-1.1269 0.21476-0.5178 0.49649-1.0236 0.62608-1.1241 0.59532-0.46139 1.6926 0.0534 2.0734 0.97265 0.0981 0.2369 0.2585 0.46147 0.35639 0.49903 0.0979 0.0376 0.49624-0.22812 0.88521-0.59041 0.70301-0.65477 0.70999-0.65738 1.1708-0.43764 0.44071 0.21015 0.47282 0.28321 0.65102 1.481 0.16577 1.1143 0.23111 1.2828 0.56526 1.4579 0.34171 0.17904 0.48802 0.1508 1.5305-0.29542 0.72938-0.31219 1.2766-0.4623 1.49-0.40874 0.18558 0.0466 0.53812-0.0193 0.78398-0.14638 0.6599-0.34125 0.89456-0.29236 0.99448 0.20724 0.0958 0.47906 0.14574 0.49406 0.99185 0.29785 0.52228-0.12113 0.62018-0.0942 1.0588 0.29092l0.48334 0.42437 0.52471-0.30959c0.59223-0.34942 0.74977-0.61997 0.5213-0.89526-0.0858-0.10341-0.20114-0.47016-0.25629-0.81501-0.0745-0.46614-0.24263-0.75873-0.65524-1.1405-0.46138-0.42689-0.571-0.64176-0.65-1.274-0.0691-0.55306-0.0292-0.91748 0.14619-1.3358 0.22496-0.53646 0.2247-0.58509-4e-3 -0.72133-0.73929-0.44059-0.81109-0.563-0.68548-1.1687 0.10844-0.52292 0.17127-0.58922 0.59774-0.63069l0.47657-0.0463-0.0997-0.68411c-0.0548-0.37625-0.25782-0.957-0.45115-1.2905l-0.35152-0.60644 0.36006-0.53058c0.19804-0.29181 0.38126-0.59186 0.40716-0.66679 0.0259-0.0749 0.44153-0.18096 0.92363-0.23563 0.66812-0.0758 1.0574-0.22461 1.637-0.62595 0.64671-0.44773 0.80784-0.65768 1.0768-1.4031 0.37225-1.0316 0.51907-1.2418 0.8676-1.2418 0.28656 0 0.43601-0.27949 0.43601-0.81544 0-0.27088-0.0781-0.35327-0.33481-0.35327-0.54136 0-1.5313-1.1195-1.6497-1.8657-0.0755-0.47558-0.19869-0.68281-0.51814-0.87151-0.23051-0.13617-0.4236-0.31559-0.42909-0.3987-0.0903-1.3686 0.0713-2.7211 0.44868-3.7552l0.41958-1.1497-1.1496-0.57799c-1.0856-0.54585-1.2009-0.65207-2.0726-1.9095-0.62563-0.90241-1.1152-1.4428-1.5192-1.677l-0.59618-0.34553-0.62498 1.173c-0.34374 0.64512-0.71049 1.2058-0.81501 1.2459-0.10451 0.0401-0.38991-0.0305-0.63422-0.15678-0.58619-0.30314-0.85835-0.29028-1.7564 0.0829-0.49672 0.20642-0.77693 0.41734-0.82485 0.62088-0.0399 0.16953-0.27198 1.259-0.51572 2.4211s-0.46402 2.1338-0.48952 2.1592-1.6473 0.24833-3.604 0.49519c-2.4811 0.31302-3.5738 0.40008-3.6113 0.28776-0.02953-0.0886-0.11918-0.16108-0.19924-0.16108-0.08969 0-0.11478 0.35038-0.06538 0.91306 0.04409 0.50218 0.11918 1.4508 0.16686 2.108l0.08669 1.1949-0.81547 0.52165c-0.44851 0.28691-0.87517 0.52165-0.94813 0.52165-0.07297 0-0.29489-0.20729-0.49316-0.46064l-0.3605-0.46062-0.2382 0.46062c-0.13101 0.25335-0.26156 0.46064-0.2901 0.46064-0.02855 0-0.4993-0.1684-1.0461-0.37423-0.57243-0.21546-1.1357-0.33871-1.3278-0.29051-0.18344 0.0461-0.76571 0.40677-1.2939 0.80164l-0.96041 0.71791-0.81508-0.36046c-0.72052-0.31865-0.80273-0.33011-0.70861-0.0987 0.36238 0.89093 0.52907 1.536 0.4879 1.888-0.03953 0.33805-0.17638 0.4534-0.85061 0.71692-4.0142 1.569-5.1131 2.0361-5.1131 2.1733 0 0.0877 0.13148 0.61916 0.29218 1.1811 0.38725 1.3542 0.37823 1.4212-0.23575 1.7518l-0.52793 0.28431-0.45817-0.57448c-0.252-0.31597-0.58966-0.72576-0.75035-0.91067l-0.29218-0.33616-1.3913 0.46139c-1.191 0.39497-1.5105 0.44651-2.2191 0.35799-0.75423-0.0942-0.83177-0.13763-0.87306-0.48861-0.08669-0.73686-1.58-1.209-1.5788-0.4992 2.92e-4 0.13519 0.20274 0.37729 0.45002 0.53799 0.41654 0.27069 0.44416 0.34052 0.37557 0.94958-0.04072 0.36157-0.14299 0.83819-0.22727 1.0592-0.13909 0.36464-0.22105 0.40174-0.8873 0.40174-0.721 0-0.73406 8e-3 -0.73406 0.44585 0 0.24521 0.14693 0.70114 0.32652 1.0132l0.32652 0.56734-0.33974 0.36162c-0.52562 0.55951-0.36267 0.83981 0.75945 1.3064l0.99709 0.41462 0.88329-0.2983c0.48581-0.16406 0.9569-0.25497 1.0469-0.20201 0.08996 0.0529 0.79635 0.61105 1.5698 1.2402 1.5383 1.2514 2.5485 1.7166 3.9261 1.8076 0.44192 0.0292 1.551 0.22954 2.4646 0.44512 1.5643 0.36912 1.6781 0.42077 1.9524 0.88553l0.2912 0.49354 0.44959-0.28466c0.44312-0.28056 0.45745-0.28065 0.99534-6e-3 0.30016 0.15312 0.58782 0.41099 0.63926 0.57304 0.10219 0.32198 0.20827 0.33735 1.368 0.19808z"/>
   <path d="m59.564 259.79c0.58077-0.4759 0.65834-0.49844 1.4379-0.41799 0.45478 0.0469 1.2032 5e-3 1.6703-0.0945 0.7652-0.1624 0.8458-0.21531 0.84152-0.55244-0.0044-0.35019 0.06844-0.388 1.199-0.62198 1.0118-0.20942 1.3146-0.22053 1.8992-0.0698 0.38247 0.0986 0.73513 0.15643 0.78369 0.12841 0.04856-0.028 0.13114-0.46098 0.18352-0.96214 0.05238-0.50116 0.15704-0.973 0.23257-1.0485 0.08571-0.0857 0.41128-0.0195 0.86619 0.17621 1.1838 0.50929 1.2715 0.4041 0.69678-0.83633-0.32583-0.70327-0.33368-0.79059-0.15556-1.731l0.18758-0.99043-0.45746-0.47479c-0.4937-0.51241-0.69232-0.59089-0.69232-0.27354 0 0.11068-0.09807 0.28264-0.21794 0.38211-0.17729 0.14714-0.43871 0.0919-1.4015-0.29622l-1.1836-0.4771-0.50696-1.1103c-0.43545-0.95364-0.91734-2.5241-0.9244-3.0127-0.0034-0.23646 0.88336-0.65176 1.9824-0.92843 1.358-0.34186 1.4194-0.64317 0.32971-1.6192l-0.7776-0.69647 0.25204-1.2251c0.22859-1.111 0.30793-1.2756 0.85259-1.7686l0.60055-0.54355-0.30615-0.38921c-0.23579-0.29976-0.30563-0.59451-0.30391-1.2826 0.0029-1.1436 0.12453-1.332 0.82942-1.2839l0.55619 0.0379 0.39264-0.95536 0.39263-0.95538-0.27271-0.9866c-0.23256-0.84136-0.37415-1.0749-0.96171-1.586-0.58493-0.50883-0.67474-0.65616-0.59461-0.97543 0.07414-0.29541 0.01344-0.43974-0.28298-0.67291-0.20756-0.16326-0.50343-0.33684-0.6575-0.38575-0.38953-0.12364-0.35637-0.26688 0.24974-1.0787 0.46583-0.62396 0.60796-0.71855 1.1759-0.78257 0.35533-0.0401 0.68388-0.11065 0.73012-0.15688 0.04623-0.0462 0.1282-0.51056 0.18216-1.0318 0.09796-0.94644 0.22722-1.1503 1.0924-1.7233 0.08494-0.0562 0.17949-0.59858 0.21012-1.2052l0.0557-1.103h-0.38536c-0.21195 0-0.77605-0.19722-1.2536-0.43827s-0.93046-0.43827-1.0065-0.43827c-0.07609 0-0.28088 0.42831-0.45508 0.95179-0.38122 1.1456-0.54685 1.3291-1.3171 1.4592-0.52919 0.0894-0.67256 0.21297-1.3292 1.1455-0.40481 0.57492-0.78543 1.1322-0.84582 1.2385-0.06039 0.10625-0.38303 0.22983-0.71697 0.27462-0.5044 0.0677-0.87308 0.31312-2.1783 1.4503-0.86414 0.75289-1.6375 1.3679-1.7185 1.3666-0.08105-1e-3 -0.54181-0.0975-1.0239-0.21393-0.4821-0.11641-1.0481-0.21399-1.2577-0.21686-0.20965-3e-3 -0.76194-0.20838-1.2273-0.45672-0.81109-0.43282-0.89436-0.44725-2.011-0.34841-1.058 0.0937-1.2168 0.15004-1.731 0.61462-0.31139 0.28132-0.56616 0.56132-0.56616 0.62222s0.22751 0.3591 0.50558 0.66269c0.36498 0.39847 0.55044 0.77937 0.66687 1.3697 0.08871 0.44975 0.251 1.0123 0.36066 1.2501 0.23548 0.51069 0.18121 0.63229-0.38923 0.87214l-0.42803 0.17998 0.59166 0.71597c0.58529 0.70829 0.59165 0.7289 0.59165 1.9153 0 0.65961 0.0615 1.2373 0.13666 1.2838 0.1668 0.10309 0.88597 1.6492 0.88597 1.9048 0 0.10097-0.10085 0.26728-0.22411 0.36959-0.49072 0.40725-1.5983-0.6928-1.9021-1.8891-0.09172-0.36121-0.22658-0.67667-0.2997-0.70106-0.17581-0.0586-0.43521 0.37027-0.55567 0.9187-0.08716 0.39687-0.04855 0.46264 0.38317 0.65261 0.37694 0.16587 0.48977 0.31095 0.52507 0.67517 0.02473 0.25516 0.13978 0.5426 0.25566 0.63877 0.11588 0.0962 0.21069 0.24475 0.21069 0.33017 0 0.0854 0.13837 0.30259 0.30748 0.4826 0.42316 0.45044 0.24289 0.66249-0.46671 0.54902l-0.57986-0.0927 0.25998 0.458c0.14298 0.2519 0.37502 0.49514 0.51563 0.54053 0.14061 0.0454 0.25566 0.14814 0.25566 0.22835 0 0.31981-0.31777 0.71101-0.57755 0.71101-0.80132 0-0.90346 0.31849-0.44508 1.3878 0.33814 0.78883 0.38245 1.939 0.0901 2.3388-0.15 0.20514-0.16151 0.34131-0.04466 0.52842 0.1143 0.18302 0.10856 0.35928-0.021 0.64361-0.15706 0.34473-0.23697 0.38059-0.66789 0.29975-0.60309-0.11315-0.64744 7e-3 -0.56378 1.5217 0.05972 1.0815-0.0325 1.419-0.8047 2.9446-0.09532 0.18831 0.87909 1.1459 1.166 1.1459 0.1609 0 0.54817-0.20245 0.86059-0.4499l0.56805-0.44991 0.13735 0.36127c0.07554 0.19869 0.18197 0.59909 0.2365 0.88978 0.05453 0.29069 0.1538 0.5623 0.2206 0.60358 0.06679 0.0413 0.45882-0.13254 0.87118-0.38626l0.74974-0.46132 0.60968 0.60069c0.36374 0.35838 0.75701 0.962 0.9749 1.4964 0.42532 1.0431 0.6695 1.2372 1.7315 1.3767 0.48765 0.0641 0.87096 0.20673 1.0186 0.37913 0.31985 0.37357 0.41075 0.35519 1.1208-0.22661z"/>
   <path d="m80.967 259.79c0-0.096-0.15778-0.71721-0.35063-1.3805l-0.35063-1.206 0.82542-0.36587c0.71295-0.31602 4.2841-1.738 5.0255-2.0012 0.34294-0.12171 0.32279-0.4357-0.10957-1.7069-0.20087-0.59059-0.36522-1.128-0.36522-1.1943 0-0.22002 0.40201-0.12524 1.3299 0.3136l0.91787 0.43407 0.44657-0.33318c1.8419-1.3742 1.8683-1.3831 2.9365-0.98339 1.0556 0.39495 1.166 0.38408 1.3814-0.13595 0.23598-0.56969 0.4801-0.55331 0.97372 0.0653l0.40182 0.5036 0.55398-0.31136c0.63398-0.35632 0.62958-0.32231 0.42125-3.2524-0.1181-1.661-0.06918-1.8516 0.44109-1.7181 0.24299 0.0635 0.27561-0.0129 0.27272-0.63879-0.0032-0.68481-0.02991-0.72976-0.72716-1.2223-0.39813-0.28122-0.72928-0.57705-0.73587-0.6574-0.0066-0.0804-0.06355-0.45937-0.12655-0.84227-0.10434-0.63404-0.07573-0.74897 0.32055-1.2878 0.51388-0.69876 0.38595-1.0403-0.2766-0.7384-0.32105 0.14628-0.43162 0.13749-0.63978-0.0509-0.2021-0.18291-0.24627-0.45027-0.22433-1.3579 0.01503-0.62157 0.10393-1.2733 0.19755-1.4482 0.09362-0.17495 0.17022-0.41155 0.17022-0.52581 0-0.23973-0.73765-1.2463-1.8575-2.5346l-0.77971-0.89704 0.59285-0.89256c0.58666-0.88323 0.77333-1.0301 0.94864-0.74646 0.16355 0.26463 0.32529 0.15433 0.76505-0.52171l0.4344-0.66781-0.24733-1.064c-0.25986-1.1179-0.63034-1.7259-1.545-2.5356l-0.53928-0.47745-1.0042 0.59252-1.9432-0.66666-0.28015-0.83579c-0.26427-0.78842-0.3071-0.8358-0.75563-0.8358-0.34801 0-0.69008-0.17668-1.276-0.65901-0.7827-0.64435-0.8043-0.68263-0.97198-1.722-0.16234-1.0064-0.20166-1.0817-0.73738-1.4128-0.55891-0.34541-0.56712-0.36367-0.66594-1.48-0.09617-1.0864-0.11746-1.1375-0.54797-1.3158-0.43946-0.18202-0.46196-0.17009-1.1911 0.63213-0.9278 1.0208-1.2175 1.1663-2.2288 1.1195-0.63396-0.0294-0.83944 0.016-0.94746 0.20896-0.18227 0.32571-0.37871 0.31233-1.5809-0.10768l-1.0137-0.35415-1.1161 2.0962-1.4569 0.71869c-1.2413 0.61235-1.6136 0.72818-2.516 0.78294l-1.0591 0.0642v2.2949l-0.59868 0.55843c-0.56175 0.52401-0.60359 0.61965-0.67833 1.5508-0.08645 1.077-0.26021 1.2614-1.1887 1.2614-0.45049 0-1.2816 0.75067-1.1202 1.0118 0.05405 0.0874 0.296 0.26125 0.53768 0.38621 0.38065 0.19684 0.43344 0.29649 0.39479 0.7451-0.03684 0.42758 0.0314 0.57869 0.39134 0.86668 0.23978 0.19184 0.50818 0.34914 0.59644 0.34953 0.14991 0 0.79542 2.147 0.79107 2.6303-1e-3 0.12049-0.21563 0.73329-0.47676 1.3618l-0.47479 1.1427-0.54784-0.0696c-0.52784-0.0671-0.54881-0.0528-0.5746 0.39129-0.05108 0.87963 0.0123 1.132 0.40005 1.5928l0.38979 0.46323-0.75267 0.66334c-0.70857 0.62444-0.76222 0.72147-0.91548 1.6556l-0.1628 0.99233 0.48743 0.5029c0.26809 0.27659 0.51875 0.47159 0.55702 0.43331 0.03827-0.0383 0.1496-3e-3 0.24739 0.078 0.15055 0.12495 0.14242 1.396-0.01008 1.5766-0.02168 0.0257-0.42381 0.14287-0.89362 0.26043s-1.1045 0.32191-1.4105 0.4541c-0.54365 0.23489-0.55409 0.25386-0.45956 0.83524 0.0532 0.32718 0.32576 1.1326 0.60568 1.7897l0.50896 1.1949 0.93824 0.3756c0.51603 0.20658 0.96244 0.37561 0.99202 0.37561 0.02958 0 0.13548-0.19722 0.23532-0.43827 0.09985-0.24105 0.25574-0.43576 0.34642-0.4327 0.09069 3e-3 0.50355 0.3216 0.91747 0.70784l0.75258 0.70228-0.21869 1.0629-0.2187 1.0629 0.45877 1.0386c0.39075 0.88467 0.42734 1.0616 0.24677 1.1937-0.15059 0.11011-0.17154 0.2273-0.07233 0.40457 0.11082 0.19802 0.34936 0.24956 1.155 0.24956 0.98566 0 1.0154 0.0107 1.0154 0.36523 0 0.43166-0.0022 0.43121 0.62744 0.13095 0.47214-0.22515 0.52067-0.21937 1.2467 0.14856 0.58728 0.2976 0.75545 0.4593 0.75545 0.72646 0 0.60044 0.80422 0.60032 2.6625 0 1.3958-0.45123 1.6201-0.48904 1.7689-0.29813 0.09373 0.12023 0.40001 0.51156 0.68061 0.86963 0.47044 0.60029 0.87766 0.75595 0.87766 0.33551z"/>
   <path d="m125.64 255.43c0.29058-0.24642 1.2436-0.69682 1.4744-0.69682 0.26601 0 0.18068-0.52083-0.13165-0.80349-0.35011-0.31685-0.36654-0.55419-0.0697-1.0072 0.29534-0.45074 0.18375-0.67774-0.53568-1.0896-0.52188-0.2988-0.7178-0.33116-1.4984-0.24757-0.84015 0.09-0.92112 0.0715-1.2572-0.28626-0.1976-0.21034-0.57405-0.51517-0.83656-0.67741-0.2625-0.16224-0.47728-0.38375-0.47728-0.49225 0-0.38105 0.88505-0.8395 1.8773-0.97243 2.473-0.3313 2.9116-0.32384 3.868 0.0658 2.046 0.83363 2.1614 0.86359 2.6104 0.67759 0.29846-0.12364 0.81093-0.13958 1.7664-0.055 2.0098 0.17801 3.9884 0.12716 4.6838-0.12036 0.33363-0.11877 0.98129-0.29931 1.4392-0.40119s0.86487-0.26917 0.90424-0.37177c0.0394-0.10258 0.31554-0.30229 0.61373-0.44379 0.44066-0.20911 0.63353-0.45048 1.0302-1.2893 0.26842-0.56763 0.63935-1.2133 0.82429-1.4348l0.33626-0.40277 0.71103 0.45092c0.65867 0.41771 0.77463 0.44353 1.5748 0.35066 1.0565-0.12261 1.9514-0.66583 2.2418-1.3608 0.18742-0.44857 0.24271-0.48204 0.60865-0.36847 0.72483 0.22498 2.9585 0.073 3.9086-0.26601 1.1446-0.40834 1.2046-0.46317 1.4712-1.3434 0.1246-0.41133 0.37108-1.0437 0.54774-1.4053l0.32121-0.6574 0.94831-0.0424c0.93794-0.0419 0.95201-0.0488 1.2856-0.62839 0.1855-0.32232 0.57208-1.3536 0.85906-2.2918l0.52179-1.7057-0.48602-0.90058c-0.46385-0.85952-0.47723-0.92719-0.29353-1.4838 0.29934-0.90699 0.0852-1.3216-1.0145-1.9639-0.51167-0.29886-0.97391-0.62756-1.0272-0.73045-0.0909-0.17553-0.59523-2.8935-0.80723-4.3506-0.0552-0.37944-0.43241-1.2678-0.89212-2.101-0.65434-1.186-0.78888-1.5487-0.75396-2.0323 0.0354-0.49095-0.0207-0.6359-0.33823-0.87296-0.33625-0.25105-0.43998-0.26284-0.88761-0.10097-0.45464 0.16439-0.56912 0.14829-1.1111-0.15632l-0.60424-0.33961 0.0886-0.75364 0.0886-0.75361-0.6747-0.55288c-0.4909-0.40224-0.67472-0.65752-0.67478-0.93701-6e-5 -0.29369-0.2755-0.63605-1.1698-1.454-1.0968-1.0032-1.2204-1.075-1.9835-1.1538l-0.81375-0.084-1.0565 1.0494c-0.5826 0.57872-1.2492 1.1007-1.4861 1.1638-0.42243 0.1124-0.43094 0.13444-0.50854 1.3186-0.0858 1.3096-0.19045 1.4724-0.9482 1.4763-0.3632 2e-3 -0.47452 0.0864-0.6195 0.47047-0.16163 0.42822-0.14408 0.50233 0.20533 0.86704 0.2871 0.29966 0.35922 0.48984 0.29014 0.76508-0.0862 0.34361-0.0534 0.36908 0.52961 0.41126 0.60343 0.0436 0.62286 0.0609 0.66689 0.59279l0.0453 0.54783h1.4068l0.74912 1.0836c0.41201 0.596 0.82688 1.1096 0.92193 1.1412 0.20227 0.0674-0.41402 2.1578-0.63617 2.1578-0.0735 0-0.31181-0.13072-0.52951-0.2905-0.61318-0.45-3.9763-1.3165-5.1097-1.3165-0.82492 0-1.092-0.0729-1.9056-0.52011-0.52042-0.28606-1.4002-0.62265-1.9552-0.74796l-1.009-0.22786-0.70409-1.0416c-0.43482-0.64326-1.4679-1.7568-2.7013-2.9116l-1.9972-1.8699-0.83403 0.47227c-0.45872 0.25975-0.94931 0.54195-1.0902 0.62711-0.17084 0.10327-0.32216 0.10654-0.4543 0.01-0.92333-0.67581-0.89888-0.66842-1.6644-0.50423-0.40537 0.0869-0.85236 0.28549-0.99332 0.44125-0.29776 0.32902-0.7179 0.35832-1.2336 0.086-0.31965-0.16876-0.44726-0.15224-1.0226 0.13245-0.36157 0.17891-0.77566 0.45616-0.9202 0.61611-0.25555 0.28283-0.24649 0.30969 0.32871 0.97426 0.32532 0.37589 0.59149 0.74602 0.59149 0.82253 0 0.0765-0.29585 0.28284-0.65745 0.45851-0.69854 0.33938-0.67048 0.28109-1.4795 3.0734-0.10128 0.34958-0.32796 0.32149-0.97979-0.12146-0.63221-0.42959-0.67478-0.42116-1.8285 0.36235-0.75715 0.51418-0.90179 0.69765-1.3372 1.6963l-0.48824 1.1198 1.724 3.4867-0.24159 0.69084c-0.22972 0.65692-0.22569 0.79124 0.0821 2.7361 0.32203 2.0347 0.32802 2.0519 1.158 3.3286 0.45884 0.70586 0.83427 1.4006 0.83427 1.5439 0 0.34623-0.42741 1.7745-0.53101 1.7745-0.0448 0-0.44488-0.10566-0.8891-0.2348-0.95279-0.27698-0.87111-0.35215-1.5016 1.382-0.30448 0.83743-0.47108 1.6165-0.5311 2.4835l-0.0875 1.2633 0.44687 0.25891c0.35543 0.20595 0.46648 0.38976 0.54275 0.89835 0.11495 0.76656 0.79349 1.4992 1.455 1.5709 0.38997 0.0423 0.44323 0.10735 0.48331 0.59034 0.0404 0.48742 0.095 0.55219 0.53442 0.63462 0.47189 0.0885 1.3927 0.99471 1.3927 1.3706 0 0.20268 5.8e-4 0.20258 0.77509-0.14001 0.44659-0.19756 0.68141-0.39726 0.71249-0.60597 0.0621-0.41682 0.42796-0.6245 0.89411-0.5075 0.46661 0.11711 1.2096 1.1539 1.3453 1.8773 0.0729 0.3885 0.28035 0.67182 0.80362 1.0975 0.69907 0.56867 0.71336 0.57285 1.602 0.46807 0.49317-0.0582 1.0079-0.20004 1.1438-0.31529z"/>
   <path d="m49.188 251.54c-0.15584-0.15584-0.50722 0.15735-0.50437 0.44954l0.0032 0.33329 0.27894-0.36305c0.15342-0.19966 0.2534-0.38856 0.22219-0.41978z"/>
   <path d="m99.582 246.47c1.6131-0.20869 2.9488-0.39445 2.9683-0.41283 0.0195-0.0184 0.19513-0.81731 0.39033-1.7754 0.67053-3.2913 0.52468-3.0097 1.806-3.4862 0.9698-0.36066 1.1745-0.39237 1.5605-0.24177 0.24437 0.0953 0.50441 0.18673 0.57787 0.20312 0.0735 0.0164 0.41611-0.46323 0.76143-1.0658 0.34533-0.60262 0.71566-1.1527 0.82295-1.2223 0.12997-0.0844 0.47044 0.0495 1.02 0.40097 0.62485 0.39971 1.0482 0.84964 1.7461 1.8555 0.86487 1.2466 0.98318 1.3561 1.9324 1.7883 0.55612 0.25326 1.0338 0.39564 1.0615 0.31641 0.18708-0.53477 0.28918-0.56383 1.1353-0.32313l0.82353 0.23427 0.14341-0.39282c0.0789-0.21606 0.1743-0.48027 0.21204-0.58715 0.0377-0.10688-0.31979-0.79715-0.79451-1.5339-0.79528-1.2343-0.8828-1.4544-1.1136-2.8005-0.26598-1.5515-0.32627-3.0728-0.15075-3.8044 0.0878-0.36584-0.0399-0.74901-0.72283-2.1696l-0.82942-1.7253 0.57251-1.2512c0.5466-1.1946 0.62335-1.2865 1.695-2.0305 0.61736-0.42859 1.2041-0.77883 1.3039-0.7783 0.0998 0 0.37869 0.13157 0.61974 0.29121 0.24105 0.15965 0.47547 0.29069 0.52094 0.29122 0.0455 0 0.26864-0.59393 0.49594-1.321 0.35799-1.1451 0.47398-1.3528 0.86692-1.5525 0.24949-0.12679 0.47788-0.25189 0.50751-0.27801 0.0296-0.0261-0.18401-0.32541-0.47479-0.66511-0.59656-0.69695-0.62334-0.80265-0.29523-1.1652 0.31384-0.34679 0.14388-0.56855-0.43573-0.56855-0.32533 0-0.58995-0.12067-0.83139-0.37914-0.1948-0.20851-0.63357-0.54346-0.97505-0.74432-0.57407-0.33767-0.62054-0.41096-0.61636-0.9722 4e-3 -0.54679 0.0699-0.6563 0.66418-1.104 0.36281-0.27338 0.71722-0.60461 0.78757-0.73606 0.22411-0.41876-0.37757-2.5632-1.0414-3.7116-0.3322-0.5747-0.62185-1.067-0.64367-1.0939-0.0218-0.027-0.2757 0.063-0.56419 0.19989l-0.52451 0.24891-0.58525-0.63816c-1.8827-2.0529-3.6198-4.419-3.32-4.5221 0.0201-7e-3 0.69178-0.0891 1.4927-0.18261l1.4561-0.17005 0.13104-0.55715c0.11162-0.4746 0.0853-0.60587-0.17786-0.88595-0.40126-0.42712-0.38956-0.6156 0.0563-0.90777 0.20087-0.13161 0.36522-0.29986 0.36522-0.37388 0-0.074-0.32573-0.55957-0.72385-1.079-0.79766-1.0407-0.80379-1.0637-1.0203-3.8296-0.13249-1.6923-0.20009-2.0128-0.53736-2.547-0.35324-0.55956-0.37275-0.66745-0.2311-1.2781 0.0851-0.36682 0.19921-0.78199 0.25362-0.9226 0.0894-0.23116-0.0197-0.25566-1.1391-0.25566h-1.2381l-0.63763-1.0877c-0.3507-0.59822-0.7898-1.157-0.97578-1.2418-0.18598-0.0847-0.78293-0.15407-1.3266-0.15407h-0.98843l-1.8011-1.3276-1.8011-1.3276-0.54726 0.24678c-0.54423 0.24541-0.54868 0.25457-0.80571 1.6563-0.14215 0.77527-0.30785 1.5082-0.36821 1.6287-0.0604 0.12052-0.6809 0.41188-1.379 0.64747-1.178 0.39755-1.3285 0.49537-2.0952 1.3618-0.60357 0.68214-0.85575 1.0978-0.93659 1.5439-0.10325 0.56971-0.54677 4.8759-0.54677 5.3087 0 0.25722-0.50243 0.24763-1.428-0.0272-0.73152-0.21724-0.7777-0.21256-1.8161 0.18407-0.98598 0.37662-1.1103 0.47372-1.6658 1.301l-0.60034 0.89402 0.18082 1.3151c0.16235 1.1808 0.24229 1.3965 0.78295 2.1126 0.33118 0.43863 0.60214 0.9049 0.60214 1.0362s-0.20255 0.34337-0.45011 0.47138c-0.24756 0.12802-0.41933 0.3105-0.3817 0.40551 0.03762 0.095 0.51472 1.2455 1.0602 2.5566 0.93409 2.2452 0.98139 2.4127 0.81268 2.8793-0.15208 0.42056-0.14231 0.55157 0.06468 0.86749 0.23013 0.35121 0.22439 0.46318-0.10228 1.9947-0.39296 1.8423-0.4311 1.8818-1.8165 1.8818-0.77828 0-0.79398 8e-3 -0.79398 0.42264 0 0.54466-0.15473 0.59131-1.3756 0.41473l-1.0104-0.14613-0.41194 0.49439c-1.1055 1.3269-1.1847 1.5082-1.0741 2.4612 0.0903 0.77806 0.17202 0.95072 0.67736 1.4312 0.45117 0.42898 0.72276 0.56209 1.2638 0.61945l0.6891 0.073 0.27466 0.89125c0.26996 0.87599 0.28736 0.89532 1.0167 1.1286 0.70872 0.22665 0.76404 0.22434 1.2311-0.0512 0.26897-0.1587 0.57554-0.28854 0.68125-0.28854s0.65151 0.48353 1.2129 1.0745c0.95726 1.0077 1.0322 1.1355 1.2061 2.057 0.1043 0.55275 0.27304 1.0162 0.38576 1.0594 0.1102 0.0423 0.20037 0.14284 0.20037 0.22345 0 0.11166-1.2101 1.8937-1.5618 2.3002-0.03214 0.0371-0.18281-0.0102-0.33482-0.10508-0.24054-0.15022-0.31733-0.10635-0.59208 0.33818l-0.31569 0.5108 0.64833 0.76301c0.35658 0.41966 0.9535 1.1795 1.3265 1.6885l0.67816 0.9255-0.23917 0.46235c-0.13673 0.26432-0.25177 0.87435-0.26858 1.4242-0.02804 0.91736-0.01463 0.95902 0.29015 0.90076 0.38225-0.0731 1.3917 0.32146 1.3917 0.54394 0 0.0864-0.23425 0.49759-0.52055 0.91381-0.34352 0.49938-0.49325 0.8584-0.44026 1.0556 0.04416 0.16438 0.08119 0.41184 0.08228 0.54993 0.0012 0.13806 0.37228 0.52459 0.82484 0.85891l0.82285 0.60788-0.08691 0.93066c-0.07469 0.79981-0.05329 0.93068 0.15219 0.93068 0.1315 0 1.5589-0.17073 3.1719-0.37941z"/>
  </g>
  <g stroke-width=".55215">
   <path transform="scale(.26458)" d="m456.16 672.78c-0.43267 0.0289-0.83764 0.18048-1.3828 0.4375-0.88736 0.41835-3.2272 1.5018-5.2012 2.4062-2.8467 1.3042-5.1719 3.1631-11.24 8.9902l-7.6504 7.3477 1.1172 11.871 1.1191 11.871-2.1641 2.0488c-1.19 1.1266-2.1641 2.1957-2.1641 2.377 0 0.18141-1.2413 4.5985-2.7598 9.8164-1.5184 5.2179-2.7617 9.9294-2.7617 10.471 0 0.54134 0.60889 1.9107 1.3516 3.043 1.1655 1.7768 1.3955 2.9299 1.6797 8.4102 0.54675 10.541 0.55248 10.567 4.1797 15.459 1.8037 2.4327 3.2793 4.5999 3.2793 4.8145 0 0.21468-0.66006 0.91532-1.4668 1.5586-1.4496 1.1559-1.4538 1.19-0.5 2.8047 0.87742 1.4853 0.89272 1.8807 0.16992 4.3594-0.88668 3.0409-1.5194 3.405-6.209 3.5645-5.1218 0.17423-5.1344 0.2818-0.6836 5.8848 2.1981 2.767 5.0541 6.176 6.3457 7.5762l2.3476 2.5469 1.916-1.0781 1.918-1.0762 1.5742 2.3301c3.1966 4.7254 4.9662 8.5036 5.8398 12.473 1.3256 6.0222 1.2435 6.4788-1.6758 9.2363-1.4149 1.3365-2.7817 2.4297-3.0371 2.4297-0.2555 0-0.46484 0.56803-0.46484 1.2617 0 0.83811 0.60255 1.616 1.7949 2.3184 0.98695 0.58137 2.4138 1.6292 3.1699 2.3281 0.75609 0.69883 1.9584 1.2695 2.6738 1.2695 0.71542 0 2.0102 0.41959 2.877 0.93164 1.5242 0.90039 1.667 0.8806 4.3184-0.5625l2.7422-1.4902 1.9258 1.1348 1.9258 1.1367 1.459-1.3516c1.048-0.97119 2.3796-1.4601 4.7266-1.7324 2.8283-0.32844 3.4913-0.21874 4.9394 0.8125l1.6738 1.1914 4.2363-2.2207 4.2363-2.2188 1.9785 1.7226c7.4258 6.4683 15.209 14.322 17.115 17.27 2.1868 3.3815 2.2853 3.4537 5.6914 4.1562 1.9693 0.40615 5.0306 1.6309 7.0879 2.8379 3.2457 1.9043 4.0132 2.125 7.3965 2.125 4.4901 0 15.532 2.712 19.713 4.8418 0.1988 0.10129 0.64463-0.67152 0.99023-1.7188 0.60042-1.8192 0.49779-2.0947-2.291-6.1641l-2.918-4.2578-2.5801 0.30468c-2.777 0.32882-3.2266-0.0484-3.2266-2.7129 0-1.2935-0.12877-1.3359-4.1406-1.3359-3.773 0-4.1406-0.0975-4.1406-1.1035 0-0.8589 0.36792-1.1055 1.6562-1.1055 1.376 0 1.6562-0.22192 1.6562-1.3125 0-0.72196-0.38533-1.6336-0.85743-2.0254-1.8878-1.5667-1.9879-2.6042-0.52734-5.4863 1.3083-2.5819 1.5441-2.7695 3.4688-2.7695h2.0644l-0.16211-2.3476c-0.0892-1.2906 0.0395-3.4635 0.28516-4.8301 0.39995-2.2256 0.61719-2.5056 2.0898-2.6699 1.1758-0.13115 2.9234-1.4283 6.1328-4.5547 2.4682-2.4045 4.8902-4.3711 5.3828-4.3711 1.131 0 1.1234-0.10146-0.17774-2.3144-0.59043-1.0044-1.3216-2.8204-1.625-4.0352-0.30349-1.2147-0.81068-3.2032-1.127-4.418-0.52721-2.0248-0.45979-2.3104 0.79883-3.4258 2.3475-2.0803 9.1348-3.2207 10.578-1.7774 0.42486 0.42482 0.94227 0.1071 1.8125-1.1152 0.67-0.94092 2.0051-2.0617 2.9668-2.4902 3.5412-1.5782 3.5892-1.7145 1.3809-4.0059-1.926-1.9985-3.5132-5.7583-2.752-6.5195 0.19767-0.19767 0.36139-0.52413 0.36328-0.72656 2e-3 -0.20258 1.1177-1.4047 2.4805-2.6719 2.6248-2.4406 2.661-3.0998 0.16211-3.0488-4.7877 0.0975-9.0348-3.8368-11.801-10.936-1.9048-4.8888-4.7731-9.6165-6.6172-10.908-1.1769-0.82432-1.0347-2.6834 0.37695-4.9473 0.41942-0.6726 0.76172-1.4932 0.76172-1.8242 0-0.33108 0.51882-1.7402 1.1523-3.1309 0.79541-1.7461 1.0477-3.0902 0.8125-4.3438-0.11168-0.59532-0.11472-1.0799-0.0527-1.4531-0.0358-0.0624-0.0706-0.12772-0.11133-0.17578-7e-3 -2e-3 -0.0213-6e-3 -0.0273-8e-3 -0.0113-4e-3 -0.0172-0.0543-6e-3 -0.043 0.0124 0.0117 0.0211 0.0365 0.0332 0.0508 0.0355 0.01 0.0933 0.0239 0.14258 0.0371 6e-3 -0.0266 0.0104-0.0571 0.0176-0.082-0.41629-0.1545-0.30669 0.0267-0.44531-0.16015-0.13893-0.0167-0.33195-0.0463-0.40626-0.12696-0.10903-0.11742-0.19276-0.25502-0.2871-0.38476 0.0154 0.0275 0.0467 0.0694 0.0273 0.0606-0.011-5e-3 -0.0176-0.0167-0.0273-0.0234-0.01-9e-3 0.011 0.028-0.0156-0.0137-0.0231-0.0192-0.0493-0.0357-0.0684-0.0606-0.0342 6e-3 -0.0803-0.0556-0.11914-0.0801-0.13655-0.16883-0.22784-0.25378-0.3125-0.36133-0.0987-0.11139-0.27807-0.31398-0.0547-0.0566 7e-3 3e-3 0.0142 6e-3 0.0215 0.01-0.0246-0.0361-0.052-0.0566-0.0762-0.10742-0.0201-0.0411 0.031 0.0399 0.082 0.10937 0.0381 0.0176 0.0752 0.0337 0.11328 0.0508 0.0463 0.021 0.0635 0.0168 0.0996 0.0293-0.39003-0.42853-0.95245-0.76953-1.3008-0.76953-0.37115 0-1.128-0.49954-1.6816-1.1113-0.80841-0.89333-1.03-2.1718-1.123-6.4883-0.11754-5.4548 0.36348-7.4116 2.1973-8.9336 0.47554-0.39466 0.86524-1.1592 0.86524-1.6992 0-1.2358-2.1696-5.9543-3.918-8.5215-1.2579-1.847-1.4932-1.9495-4.4707-1.9531-2.6201-4e-3 -3.2875-0.20781-4.0039-1.2305-0.47274-0.67495-0.85937-1.6518-0.85937-2.1699 0-0.99375-1.3959-2.6777-2.2207-2.6777-0.53873 0-2.3433 3.8191-2.9512 6.248-0.48635 1.9435-1.7425 1.7844-3.0098-0.38086-0.51066-0.8725-1.6273-2.2977-2.4824-3.168-0.85511-0.87027-1.3956-1.8397-1.2012-2.1543 0.19427-0.31445 0.0595-0.50333-0.29883-0.41992-0.3583 0.0835-2.1768-1.7435-4.043-4.0586-1.995-2.475-4.7016-5.0609-6.5684-6.2773-1.7462-1.1379-3.1758-2.2464-3.1758-2.4629 0-0.21656-0.30991-0.4016-0.68945-0.4121-0.37958-0.0113-3.4936-1.6893-6.9199-3.7305-3.4264-2.0413-7.0289-3.9294-8.0059-4.1953-0.97697-0.26607-5.2711-0.84777-9.543-1.293-5.8197-0.60661-8.5583-1.1596-10.918-2.2031-1.7321-0.766-3.2629-1.4154-3.4023-1.4434-0.13947-0.0265-1.5828-0.63709-3.207-1.3555-1.6631-0.73549-2.4625-1.0325-3.1836-0.98437z"/>
   <path transform="scale(.26458)" d="m584.1 686.85c-2.6561 0.0813-19.209 2.6795-27.129 4.291l-4.9609 1.0098-9.1191-1.9004c-5.0152-1.0455-9.5522-2.036-10.084-2.2012-0.77817-0.24189-1.4522 0.74382-3.4512 5.0508-1.3662 2.9435-2.4844 5.634-2.4844 5.9785 0 0.34469 0.48594 0.92974 1.0801 1.3008 0.5941 0.37115 1.3542 1.6928 1.6894 2.9375 0.58326 2.166 0.69655 2.2588 2.6465 2.1426 3.8048-0.22677 5.1006 0.0121 5.4512 1 0.1886 0.53144 0.68054 1.3602 1.0918 1.8418 1.4119 1.6532 4.0527 7.7001 4.0527 9.2793 0 0.86903-0.3897 1.9042-0.86524 2.2988-1.7562 1.4576-2.2608 3.4886-2.123 8.5254 0.10923 3.9968 0.31962 5.0753 1.0762 5.5215 1.827 1.0776 2.7698 1.9065 2.8594 2.5117 0.15103 0.0665 0.29192 0.15776 0.40235 0.30079-0.0574-0.0114-0.25284-0.049-0.41406-0.0762-4e-3 0.0159-2e-3 0.0333-8e-3 0.0488 0.16553 0.0223 0.33995 6e-3 0.49805 0.0625 0.28876 0.10129 0.50992 0.63277 0.63672 0.875 0.0814 0.15543 0.12316 0.29762 0.14453 0.43164 0.82652 1.6091 0.63249 3.8882-0.55078 6.3379-0.58677 1.2147-1.0756 2.4985-1.0859 2.8535-0.0113 0.3549-0.45293 1.4061-0.98437 2.3359-0.67801 1.1863-0.80151 1.9187-0.41407 2.4551 3.5882 4.9671 5.0112 7.5748 7.7324 14.166 1.7899 4.3355 6.2266 8.1925 8.5684 7.4492 0.58397-0.1852 2.2231 0.17694 3.6426 0.80469 2.5261 1.1174 2.5598 1.166 1.5859 2.2422-0.54724 0.60473-1.2047 1.0977-1.4609 1.0977-0.25625 0-1.4185 0.93346-2.582 2.0723-1.9198 1.8789-2.0707 2.2358-1.6426 3.8555 0.25966 0.98174 1.4595 2.8447 2.668 4.1406 1.2084 1.296 2.1336 2.6962 2.0566 3.1133-0.0771 0.41711-1.4183 1.4424-2.9824 2.2773-1.5642 0.83501-3.5885 2.3512-4.498 3.3691-1.5488 1.7334-1.743 1.8029-3.0644 1.0957-1.5493-0.82912-5.2682-0.55382-7.7441 0.57422-1.7524 0.7985-1.7997 1.678-0.35156 6.541 1.3053 4.383 3.6153 7.6978 5.3848 7.7266 1.8143 0.0302 11.461 9.0925 11.461 10.768 0 0.83713 0.91268 2.0892 2.6328 3.6074 2.6049 2.2992 2.6301 2.3528 2.2852 4.9531-0.3069 2.3137-0.20022 2.734 0.89062 3.498 1.1202 0.78466 1.4448 0.78711 3.3633 0.0195 2.1003-0.84038 2.1476-0.83118 4.3438 0.9082 2.0594 1.6311 2.2207 1.9565 2.2207 4.5078 0 2.2417 0.5026 3.6884 2.7227 7.8223 2.5113 4.6763 2.8375 5.7395 4.1777 13.631 0.79941 4.7071 1.5596 8.9344 1.6894 9.3945 0.13002 0.46016 1.6972 1.6405 3.4844 2.623 3.6724 2.0189 4.0818 2.4326 4.9473 5.0039 0.45846 1.3619 0.45543 2.445-0.0117 4.1875-0.58575 2.19-0.50773 2.5719 1.1152 5.5684l1.7422 3.2188-1.3965 4.4648c-0.76811 2.4559-1.5443 4.9504-1.7246 5.543-0.30878 1.0145-0.25184 1.0269 0.98633 0.22071 0.72314-0.47089 4.4208-2.5432 8.2168-4.6035h2e-3c3.796-2.0604 8.2672-4.4883 9.9375-5.3965 3.9018-2.1214 4.9206-3.0649 9.0918-8.416 3.2717-4.1972 9.6816-14.508 9.6816-15.574 0-0.27477 0.64486-1.3544 1.4316-2.4004 0.78675-1.046 2.4136-3.8889 3.6152-6.3184 1.2789-2.5856 3.5417-5.907 5.459-8.0078 1.8015-1.9739 3.281-3.9916 3.2871-4.4844 0.0113-1.0236 4.2929-5.1565 5.8672-5.666 0.64226-0.20787 1.8982-2.2049 3.252-5.168 1.2133-2.6558 2.6131-5.2362 3.1113-5.7344 0.49825-0.49826 2.2901-3.2325 3.9805-6.0762 3.3455-5.6281 6.4565-13.942 10.574-28.254 1.3809-4.7997 3.2593-10.886 4.1738-13.525l1.6621-4.7988-1.9238-3.8945c-1.8036-3.6494-4.9959-7.2339-10.459-11.746-1.8267-1.5088-3.4642-4.9886-4.8164-10.236-1.1351-4.4052-2.2639-5.7907-6.4453-7.9062-1.9528-0.98805-4.1655-2.8101-6.1465-5.0606-2.5998-2.9534-4.023-3.979-8.8926-6.4121-3.1886-1.5932-7.0402-3.3526-8.5586-3.9102-3.5281-1.2956-5.5327-2.9468-8.2715-6.8144-1.2085-1.7067-2.8225-3.5859-3.5879-4.1758-3.3546-2.5855-16.034-16.279-16.695-18.031-0.68009-1.8009-4.1026-1.3869-7.2949 0.88281-1.495 1.0629-2.8963 1.9316-3.1133 1.9316-0.21694 0-1.72-3.5077-3.3398-7.7949-1.6198-4.2873-3.2665-7.9181-3.6582-8.0684-0.0469-0.018-0.16082-0.023-0.33789-0.0176z"/>
   <path transform="scale(.26458)" d="m543.18 737.42c-2e-3 0.0651 0.0179 0.0764 0.0781 0.10547-0.0285-0.0383-0.0305-0.0437-0.0781-0.10547z"/>
  </g>
  <g stroke-width=".14609">
   <path d="m59.221 230.07c1.9204-1.7099 2.3689-2.0322 2.9338-2.1079 0.3162-0.0424 0.59246-0.0991 0.61392-0.12591 0.02146-0.0268 0.38218-0.56212 0.80161-1.1895 0.41943-0.62738 0.84019-1.1665 0.93503-1.198 0.09484-0.0315 0.43539-0.12481 0.75679-0.20731 0.56786-0.14574 0.59452-0.18124 0.94416-1.2569 0.19789-0.60879 0.439-1.1726 0.5358-1.253 0.12279-0.10192 0.4974 0.0158 1.2392 0.38932 1.0316 0.51951 1.1076 0.53475 2.5595 0.51349 1.4453-0.0212 1.5439-0.0442 2.8916-0.67392l1.3953-0.65201 0.53159-1.0588c0.29238-0.58234 0.59738-1.1008 0.67779-1.152 0.08041-0.0513 0.64124 0.0732 1.2463 0.27663 1.0092 0.33933 1.1146 0.35005 1.2757 0.12976 0.1349-0.18448 0.42063-0.24011 1.2332-0.24011 1.1569 0 1.1709-9e-3 2.4359-1.4966l0.45787-0.5386 0.72723 0.35083c0.79043 0.38131 0.91359 0.63904 0.91359 1.9118 0 0.52875 0.06821 0.67777 0.4272 0.93338l0.4272 0.30421 0.89712-1.0979 0.89712-1.0979 0.8305 0.0966c1.2487 0.1452 1.2535 0.14457 1.312-0.1693 0.08816-0.47316 0.47008-0.65741 1.3627-0.65741 0.67498 0 0.85233-0.0499 0.90822-0.25565 0.0382-0.14061 0.18222-0.73644 0.32003-1.3241 0.23933-1.0205 0.2387-1.0948-0.01419-1.6556-0.21261-0.47147-0.23054-0.64191-0.09105-0.86528 0.09554-0.15299 0.17371-0.37686 0.17371-0.4975s-0.46018-1.3196-1.0226-2.6643c-0.56244-1.3447-1.0226-2.5272-1.0226-2.6276 0-0.10046 0.19801-0.28505 0.44002-0.4102l0.44002-0.22753-0.58568-0.83537c-0.53899-0.76877-0.59937-0.9536-0.75739-2.3186l-0.17171-1.4833 0.68595-1.0039c0.66872-0.97871 0.71539-1.0144 1.8573-1.4201 1.1542-0.41012 1.321-0.42028 2.5616-0.15636l0.45263 0.0963 0.09445-1.2191c0.05195-0.67049 0.17296-1.9422 0.26891-2.826l0.17446-1.607 0.86688-1.0226c0.47679-0.56245 1.0886-1.1212 1.3595-1.2418 0.27093-0.12053 0.49294-0.25842 0.49334-0.30642 2e-3 -0.23208-2.0726-2.8293-3.1393-3.9302-1.6333-1.6856-1.9746-2.2486-2.7009-4.4557-0.66707-2.027-0.816-2.2884-1.4548-2.553-0.31538-0.13065-0.49768-0.39662-0.80004-1.1673-0.30886-0.78723-0.48165-1.0354-0.81789-1.1747-0.23446-0.0971-0.45645-0.28455-0.4933-0.41651-0.03685-0.13198-0.23912-0.81762-0.44948-1.5237l-0.38247-1.2837-0.54148 0.0899c-0.82806 0.13739-0.88433 0.16932-1.1927 0.67633l-0.28763 0.47297 0.37272 0.48867c0.42366 0.55543 0.39602 0.75881-0.14227 1.0469-0.34547 0.18489-0.43059 0.16811-0.97521-0.19231-0.3629-0.24016-0.70263-0.36125-0.86706-0.30907-0.21232 0.0674-0.46366-0.18195-1.1707-1.1614-0.64451-0.89278-0.98871-1.2472-1.2113-1.2472-0.17099 0-0.55649-0.17019-0.85666-0.37821-0.36707-0.25438-0.64468-0.34683-0.84787-0.28234-0.2703 0.0858-0.30452 0.22173-0.32511 1.2913-0.01265 0.65746-0.0094 1.294 0.0073 1.4145 0.1702 1.2288-0.02442 1.4406-1.3568 1.477-1.7878 0.0488-2.8659 0.32436-3.3387 0.85345l-0.4165 0.46614-0.4779-0.52174c-0.77642-0.84765-1.5404-0.70203-2.1972 0.41882-0.21114 0.36029-0.49235 0.71577-0.62491 0.78995-0.20852 0.1167-0.21606 0.19512-0.05596 0.58166 0.27953 0.67484 0.07671 1.5553-0.47809 2.0753-0.25356 0.23768-0.51033 0.43244-0.57059 0.43282-0.06026 0-0.10957 0.19559-0.10957 0.4338 0 0.30168-0.09976 0.48445-0.3287 0.60221-0.4519 0.23246-1.1322 0.88308-1.1322 1.0828 0 0.0904-0.19722 0.31015-0.43827 0.48837-0.28656 0.21186-0.43827 0.45226-0.43827 0.69448 0 0.86847-0.74123 1.2736-1.1456 0.62619-0.28248-0.45232-0.50362-0.14362-0.55928 0.78072-0.06139 1.0195-0.09851 1.0914-0.62271 1.2066-0.24648 0.0541-0.44814 0.12738-0.44814 0.16276 0 0.0354 0.16173 0.32053 0.35939 0.63366 0.19767 0.31313 0.40045 0.73289 0.45063 0.93283 0.05018 0.19992 0.25002 0.51268 0.4441 0.695 0.71598 0.67263 0.22788 2.2071-0.76107 2.3926-0.46247 0.0868-0.63914 0.30762-0.63914 0.79901 0 0.14168-0.13303 0.37798-0.29563 0.52513-0.2744 0.24833-0.3819 0.25377-1.4974 0.0758-0.66098-0.10546-1.4457-0.31427-1.7438-0.46404-0.76742-0.38553-1.7349-0.35053-2.5679 0.0929-1.1632 0.6192-2.2223 0.3856-2.2223-0.49013 0-0.26448-0.0452-0.3266-0.15659-0.21521-0.08612 0.0861-0.18705 0.63985-0.22428 1.2305-0.05044 0.80019-0.14068 1.1516-0.35406 1.3788-0.46977 0.50005-0.42584 1.0484 0.11809 1.4741 0.52095 0.4077 0.6374 1.0497 0.24888 1.3721-0.29368 0.24373-1.7657 0.0952-2.1056-0.2124-0.13865-0.12548-0.29621-0.22814-0.35015-0.22814-0.2055 0-0.08566 0.4042 0.1952 0.65838 0.46392 0.41985 0.72936 1.083 0.72936 1.8221 0 0.53916-0.07673 0.75462-0.36522 1.0256-0.26428 0.24828-0.36522 0.49528-0.36522 0.89371 0 0.40339-0.08682 0.61143-0.32468 0.77803-0.37779 0.26461-0.86375 0.29535-1.0901 0.069-0.08715-0.0872-0.31396-0.13645-0.50401-0.10957-0.29124 0.0412-0.35751 0.15276-0.42164 0.70977-0.10394 0.90272-0.61772 1.6035-1.1756 1.6035-0.47146 0-0.54662 0.21151-0.20808 0.58558 0.32344 0.3574 0.12703 1.1084-0.3853 1.4732-0.23061 0.16421-0.41929 0.42768-0.41929 0.58549 0 0.1578-0.09154 0.50602-0.20343 0.7738-0.24607 0.58893-0.15244 0.77645 0.42035 0.84189 0.70469 0.0805 0.80004 0.6292 0.30211 1.7387-0.30445 0.6784-0.39748 1.0941-0.37013 1.6538 0.02009 0.41121 0.02499 1.2326 0.01088 1.8252-0.03058 1.2852 0.14931 1.5659 1.0941 1.7076 0.34973 0.0524 0.70408 0.17754 0.78745 0.27799 0.23154 0.27899-0.04072 1.9797-0.35353 2.2085-0.36985 0.27044-0.16357 0.74972 0.37344 0.86766 0.64874 0.14249 0.82938 0.64355 0.49741 1.3797-0.14448 0.32039-0.41559 0.68272-0.60248 0.80517-0.20535 0.13455-0.30652 0.30934-0.2557 0.44177 0.04625 0.12053-0.0216 0.48331-0.15079 0.80617-0.12918 0.32286-0.23488 0.76976-0.23488 0.9931 0 0.22336-0.07377 0.47987-0.16394 0.57004-0.09017 0.0902-0.1944 0.44845-0.23162 0.79619-0.03722 0.34773-0.1616 0.7059-0.27639 0.79595-0.17309 0.13576-0.12508 0.22748 0.28132 0.53746l0.49003 0.37376 0.43276-0.43276c0.39811-0.39811 0.54872-0.44254 1.8813-0.55498 1.4034-0.11841 1.4659-0.11074 2.005 0.24606 0.49144 0.32521 2.3621 0.83352 3.2728 0.8893 0.17748 0.0108 0.58994-0.22669 0.94958-0.5469z"/>
   <path d="m48.681 214.73c0-0.42906-0.34843-0.71744-0.52386-0.43359-0.10668 0.17262 0.21464 0.85623 0.40246 0.85623 0.06677 0 0.1214-0.19019 0.1214-0.42264z"/>
   <path d="m111.61 193.73c0.35664-0.0713 0.46048-0.18075 0.53167-0.56021 0.0486-0.25935 0.28712-1.0905 0.52993-1.847 0.33785-1.0527 0.547-1.4635 0.89115-1.7506l0.44968-0.37509-0.30046-3.1311-0.30046-3.131 2.0734-2.0142c1.9608-1.9048 2.939-2.6185 4.0456-2.9517 0.20088-0.0605 0.45381-0.18103 0.56209-0.2679 0.39544-0.31722 0.82681-0.23472 2.4896 0.47618 1.6184 0.69189 1.8034 0.73625 4.0336 0.96721 2.3303 0.24133 2.3409 0.24409 3.478 0.90281 0.62729 0.36339 1.233 0.75323 1.3461 0.86631 0.11306 0.11307 0.25723 0.21213 0.32036 0.22014 0.25998 0.033 0.77219 0.32265 0.77219 0.43672 0 0.0674 0.0939 0.12264 0.2087 0.12264 0.11478 0 0.29557 0.0849 0.40174 0.18878 0.10618 0.10384 0.40155 0.27402 0.65638 0.37821 0.57717 0.23595 1.5607 1.2762 1.4208 1.5026-0.0594 0.0961-0.0388 0.12713 0.0485 0.0732 0.0834-0.0515 0.62052 0.48067 1.1936 1.1827 0.57312 0.70199 1.1511 1.3914 1.2844 1.532 0.25299 0.26689 0.56251 0.35576 0.41656 0.1196-0.0871-0.14089-0.0327-0.27561 1.0951-2.7127 0.37182-0.80349 0.76073-1.6746 0.86425-1.9357 0.12933-0.32626 0.28467-0.47479 0.49658-0.47479 0.16961 0 1.46 0.24059 2.8676 0.53466l2.5592 0.53466 1.607-0.31452c1.767-0.34582 6.9239-1.1931 7.2618-1.1931 0.11701 0 0.28287 0.21366 0.36859 0.47479 0.5213 1.5881 1.3672 3.5368 1.5186 3.4984 0.096-0.0244 0.33714-0.17229 0.53599-0.32871 0.23179-0.18233 0.58852-0.28437 0.99409-0.28437 0.48412 0 0.66944-0.0689 0.78973-0.29369 0.0865-0.16153 0.6791-0.59693 1.317-0.96759 0.63791-0.37064 1.2208-0.74798 1.2954-0.83851 0.0746-0.0905 0.29966-0.72339 0.50022-1.4064 0.20055-0.68297 0.87194-2.2875 1.492-3.5657 1.0467-2.1578 1.1214-2.3738 1.0447-3.0214-0.0454-0.38359-0.2177-0.96227-0.38284-1.286-0.19564-0.38349-0.30024-0.86959-0.30024-1.3954v-0.80685l-0.71142-0.3605c-0.39128-0.19828-0.8927-0.57739-1.1143-0.84247-0.22157-0.2651-0.88731-0.74976-1.4794-1.0771-0.79626-0.44014-1.192-0.76935-1.5199-1.2644-0.68247-1.0303-1.312-3.046-1.4125-4.5226l-0.0864-1.2689 0.60537-0.59935c0.33296-0.32965 0.60538-0.71905 0.60538-0.86533s-0.1863-0.62035-0.414-1.0535c-0.32568-0.61952-0.39997-0.92371-0.34822-1.4258 0.0832-0.80751-0.0443-0.89056-1.3722-0.89342-1.3234-3e-3 -2.4102-0.15055-2.3093-0.31382 0.0431-0.0697-0.0205-0.12669-0.14117-0.12669-0.32474 0-0.62638-0.51049-1.0316-1.7459-0.96786-2.9507-0.96183-5.1397 0.0165-5.9987 0.27336-0.24002 0.57691-0.43676 0.67455-0.43721 0.0976-4.4e-4 0.42405-0.0693 0.72536-0.15295 0.38667-0.10739 0.54784-0.23354 0.54784-0.42883 0-0.15218-0.0585-0.31282-0.12991-0.35698-0.33203-0.2052-0.30569-0.82379 0.0585-1.3741 0.21168-0.31988 0.33337-0.66293 0.28233-0.79594-0.10587-0.27589-0.75359-0.3628-1.6718-0.22431-0.55474 0.0837-0.69733 0.0526-0.91306-0.1988-0.38537-0.44911-0.32316-1.4027 0.16206-2.4842 0.37204-0.82919 0.42522-1.1388 0.48633-2.8312 0.0601-1.6634 0.11724-2.0064 0.45882-2.7525 0.21462-0.46878 0.39021-0.93185 0.39021-1.029 0-0.0972-0.16408-0.50013-0.36461-0.89541-0.20054-0.39528-0.36489-0.8078-0.36523-0.91673-1e-3 -0.3341 0.68484-1.0362 1.6738-1.7133 0.77401-0.52997 1.0608-0.6452 1.6062-0.6452 0.4212 0 0.66385-0.0645 0.66385-0.17639 0-0.097-0.10412-1.0009-0.23139-2.0087-0.27231-2.1562-0.61924-3.4392-1.8388-6.7994-0.80157-2.2086-1.0337-2.6776-2.097-4.2366-0.98069-1.4379-1.3206-2.0945-1.8907-3.6522-0.3823-1.0445-0.74805-1.9562-0.81277-2.0259-0.0665-0.0716-0.82826-0.0701-1.7509 3e-3l-1.6332 0.13018-2.798-0.6909c-1.5389-0.37999-2.913-0.6938-3.0537-0.69734-0.17525-4e-3 -0.25565 0.10543-0.25565 0.34926 0 0.66853-0.25467 1.0584-0.84579 1.295-0.54443 0.21784-0.68016 0.40495-0.84972 1.1714-0.0323 0.14602 0.17439 0.80813 0.45931 1.4714l0.51805 1.2059 0.73513 0.18841c0.40432 0.10362 0.77122 0.28246 0.81533 0.39741 0.0441 0.11495-3e-3 0.83587-0.10418 1.602-0.16823 1.271-0.21623 1.4052-0.54806 1.5313-0.32763 0.12457-0.35566 0.19813-0.28272 0.74197 0.0585 0.43653 0.2077 0.71186 0.53859 0.99427 0.42197 0.36015 0.45505 0.45413 0.4246 1.2066-0.0406 1.004-0.29843 1.1861-1.3587 0.95998-0.3783-0.0807-0.86473-0.0966-1.0809-0.0354-0.21622 0.0612-0.42599 0.1184-0.46616 0.12705-0.0402 9e-3 -0.18577 0.0811-0.32353 0.16091-0.22584 0.1309-0.19349 0.23533 0.3287 1.0612 0.50695 0.80177 0.57918 1.0242 0.57918 1.7833 0 1.0237-0.0459 1.0656-1.8281 1.6714l-1.1707 0.3979-2.835-0.29889c-1.8664-0.19676-2.9037-0.36762-3.0362-0.50006-0.11065-0.11065-0.42037-0.78374-0.68826-1.4958l-0.48708-1.2946-0.7844-0.0113c-0.43143-6e-3 -0.87429-0.0428-0.98414-0.0813-0.12077-0.0423-0.33162 0.16106-0.53337 0.51441-0.1835 0.3214-0.95282 1.6022-1.7096 2.8461l-1.376 2.2618-3.173 1.238-3.8817-0.44161c-2.1349-0.24289-3.9273-0.48741-3.983-0.54336-0.0558-0.056-0.17438-0.56003-0.26362-1.1202-0.0892-0.56013-0.19109-1.0473-0.22635-1.0825-0.0353-0.0353-0.90274 0.49343-1.9277 1.1749l-1.8636 1.239-1.8992-0.18321c-2.6996-0.26043-2.4708-0.29636-2.6631 0.41813-0.14929 0.55469-0.26543 0.67413-1.0894 1.1204-0.98274 0.53218-1.7539 1.1038-1.6412 1.2165 0.0377 0.0377-0.0317 0.15163-0.15419 0.25327-0.12357 0.10255-0.22267 0.4174-0.22267 0.70744 0 0.4065 0.039 0.48368 0.17531 0.34733 0.25469-0.25468 0.76683-0.21474 1.0303 0.0804 0.12554 0.14061 0.46443 0.7621 0.75308 1.3811 0.61572 1.3204 0.6896 2.2049 0.23266 2.7858-0.1607 0.20429-0.29218 0.5667-0.29218 0.80535s-0.10564 0.68673-0.23476 0.99575c-0.21294 0.50964-0.21368 0.60292-8e-3 1.0039 0.18507 0.36077 0.53488 2.1162 0.53488 2.6841 0 0.0774-0.23303 0.41973-0.51785 0.76064-0.28482 0.3409-0.4976 0.72502-0.47284 0.85358 0.0248 0.12857 0.30703 0.36973 0.62728 0.53591 0.7854 0.40756 1.24 1.412 1.24 2.7401 0 0.43276 0.0641 0.68356 0.17462 0.68356 0.096 0 0.35498 0.17279 0.57542 0.38399 0.37824 0.36238 0.38803 0.4035 0.1738 0.73045-0.33563 0.51224-0.96458 0.42633-1.7273-0.23593-0.49378-0.42872-1.193-0.60202-1.4038-0.34794-0.24183 0.29139 0.31806 1.4698 0.78278 1.6475 0.75869 0.29017 1.1926 1.1709 0.97139 1.9719-0.10282 0.37235-0.24797 0.54862-0.50487 0.61311-0.46516 0.11674-0.7068-0.0942-0.91886-0.80196-0.15644-0.52212-0.25459-0.60452-1.1446-0.9608-1.0854-0.43453-1.4543-0.40893-2.1915 0.15198-0.25577 0.1946-0.66163 0.35384-0.90191 0.35384-1.004 0-1.9382 0.33542-2.3168 0.83186-0.26477 0.34712-0.48529 0.48294-0.78415 0.48294-0.5459 0-0.71825 0.34645-0.71825 1.4439 0 0.8418-0.02267 0.8959-0.53968 1.2879-1.4071 1.0668-1.7904 1.7099-1.7955 3.0125-0.0022 0.54836-0.54209 1.5373-1.0856 1.9883-0.1273 0.10566-0.23146 0.30752-0.23146 0.44859 0 0.15348-0.56003 0.67743-1.3944 1.3046-0.77133 0.57977-1.4573 1.2135-1.5351 1.4183-0.07742 0.20362-0.43992 0.75901-0.80555 1.2342s-0.63402 0.91374-0.5964 0.97461c0.12042 0.19484-0.27132 1.8374-0.45262 1.8978-0.09606 0.032-0.33695-0.10408-0.53531-0.30242-0.33926-0.33926-0.37415-0.34572-0.58851-0.10885-0.12533 0.13848-0.22787 0.38728-0.22787 0.5529 0 0.33108-1.1202 1.9334-1.574 2.2514-0.45812 0.32106-0.90954 1.3064-0.90954 1.9852 0 0.52012 0.13184 0.80447 0.81385 1.7552 0.59433 0.82853 0.905 1.1385 1.1518 1.1491 0.18586 8e-3 0.53648 0.15589 0.77916 0.3287 0.65413 0.46579 0.82752 0.38144 0.39136-0.1904l-0.38487-0.50458 0.41395-0.74036c0.32989-0.59 0.51779-0.76632 0.92527-0.86821 0.91777-0.2295 1.3989-0.28667 1.5558-0.18489 0.08478 0.055 0.36538 0.76986 0.62354 1.5886 0.40638 1.2888 0.53184 1.5258 0.93464 1.7658 0.34099 0.20314 0.53773 0.48838 0.73661 1.068 0.29349 0.85528 0.60919 1.3021 0.92 1.3021 0.42975 0 0.77862 0.6407 1.3643 2.5055 0.33687 1.0726 0.74854 2.1803 0.91483 2.4615 0.16628 0.28122 0.90239 1.1358 1.6358 1.8992s1.8167 2.0323 2.4074 2.8199c0.72663 0.96894 1.1425 1.4057 1.286 1.3507 0.11662-0.0448 0.36855-0.12064 0.55985-0.16866 0.26089-0.0655 0.37114-0.2205 0.44113-0.62026 0.05132-0.29312 0.18452-0.981 0.296-1.5286 0.11149-0.5476 0.20271-1.0231 0.20271-1.0567 0-0.0833 1.4182-0.7964 1.5839-0.7964 0.073 0 0.97259 0.62453 1.9991 1.3878l1.8664 1.3878h0.88062c1.4054 0 1.7303 0.18611 2.4574 1.4078l0.63525 1.0673 0.74871 4e-3c0.41179 2e-3 0.94814-0.0357 1.1919-0.0845z"/>
   <path d="m101.73 133.77c0.30148-0.37514 0.78338-0.72795 1.3284-0.97254 0.78994-0.3545 0.86863-0.43369 1.0298-1.0363 0.096-0.35888 0.26641-0.68777 0.37872-0.73087s1.1695-4.4e-4 2.3494 0.0949l2.1452 0.17325 1.9866-1.3186c1.0926-0.72522 2.0863-1.3186 2.2082-1.3186s0.21945 0.11505 0.21679 0.25566c-7e-3 0.3886 0.33659 2.1416 0.44177 2.2516 0.0509 0.0532 1.7392 0.27713 3.7518 0.49757l3.6592 0.40079 2.8142-1.0904 1.7944-2.9837c0.98695-1.641 1.8626-2.9814 1.9459-2.9785 0.0833 3e-3 0.31409 0.0952 0.51282 0.20521 0.23374 0.1294 0.62061 0.17411 1.0957 0.12661l0.73434-0.0734 0.58436 1.5117 0.58436 1.5117 1.3148 0.16724c0.72314 0.092 2.038 0.20707 2.9218 0.25576 1.5071 0.083 1.675 0.0636 2.7026-0.31332l1.0957-0.40186 0.0453-0.62815c0.0387-0.53659-0.0518-0.77989-0.62088-1.6694-0.36639-0.57267-0.66616-1.1178-0.66616-1.2114 0-0.0936 0.44375-0.34317 0.9861-0.55457 0.86924-0.33881 1.0593-0.36551 1.6036-0.2253 0.82821 0.21334 1.0625 0.10083 1.0625-0.51024 0-0.3981-0.10303-0.57714-0.51132-0.88856-0.4888-0.37283-0.51131-0.43043-0.51131-1.3087 0-0.82705 0.0348-0.93458 0.34936-1.0779 0.30317-0.13813 0.36304-0.29552 0.45294-1.1907 0.057-0.56733 0.10347-1.0815 0.10332-1.1426-1.5e-4 -0.0611-0.34686-0.24385-0.77046-0.40617-0.4236-0.16233-0.79646-0.39242-0.82858-0.51132-0.0321-0.1189-0.1193-0.34766-0.19374-0.50835-0.0744-0.1607-0.28939-0.67599-0.47765-1.1451-0.33145-0.82589-0.33494-0.87776-0.11036-1.6373 0.21065-0.71245 0.28827-0.80594 0.84598-1.0189 0.57298-0.21882 0.62067-0.2803 0.71309-0.91924 0.0545-0.3766 0.15737-0.75826 0.22866-0.84814 0.0929-0.11712 1.0084 0.0592 3.2321 0.62238 3.0554 0.77385 3.1252 0.78432 4.6047 0.68941 0.82626-0.053 1.5341-0.1478 1.5729-0.21065 0.11941-0.19322-0.79362-2.3233-1.627-3.7958-0.43492-0.76843-0.79076-1.445-0.79076-1.5036 0-0.0585-0.0681-0.18583-0.15136-0.28287-0.0833-0.097-0.84986-1.294-1.7036-2.66-1.8792-3.0067-2.1318-3.7211-1.8648-5.274 0.0981-0.5706 0.2783-1.1951 0.40041-1.3878 0.1221-0.19272 1.1925-2.1254 2.3786-4.2948 1.1861-2.1694 3.0437-5.555 4.128-7.5236l1.9714-3.5792 0.12156-1.7531 0.12156-1.7531-1.4226-1.3509c-0.78243-0.74297-1.5853-1.4333-1.7842-1.5341-0.25272-0.12812-0.77554-0.97472-1.737-2.8127-0.75649-1.4462-1.7114-3.2493-2.122-4.007l-0.74654-1.3776-2.7634-1.2188c-1.5199-0.67035-2.9221-1.2587-3.1161-1.3073-0.19397-0.04869-0.41252-0.22799-0.48565-0.39845-0.32373-0.75453-1.8914-6.8571-2.0499-7.9796l-0.17532-1.2418 1.2566-2.7757c1.1372-2.5119 1.2776-2.9215 1.4771-4.3096 0.18136-1.2619 0.18664-1.5679 0.0298-1.7253-0.11231-0.11269-0.662-0.21612-1.3374-0.25163-0.86797-0.04564-1.2129-0.12652-1.4192-0.33277-0.489-0.489-0.20063-0.90855 1.8737-2.7261 1.079-0.94541 1.961-1.7605 1.96-1.8112-1e-3 -0.05075-0.15819-0.65746-0.34932-1.3483-0.31079-1.1233-0.33368-1.3925-0.2166-2.5475 0.072-0.71033 0.19074-1.5082 0.26387-1.7731 0.14553-0.52709 0.64867-1.247 0.79579-1.1386 0.0508 0.03745 0.0635 0.02821 0.0282-0.02053s0.75633-1.1773 1.7593-2.508c1.2193-1.6177 1.7934-2.496 1.7324-2.6506-0.0697-0.17678-1.753-4.7031-2.0418-5.4904-0.0295-0.08035-1.7985-0.96784-3.9312-1.9722-3.6192-1.7044-3.8778-1.8517-3.88-2.2096-6e-3 -0.94727-0.16289-1.2135-1.0663-1.8069-0.53402-0.35078-1.1406-0.92622-1.521-1.443-0.57331-0.77878-0.70286-1.0438-0.8345-1.7074-0.023-0.1158-0.11809-0.39684-0.21136-0.62455-0.0933-0.2277-0.13661-0.46734-0.0963-0.53253 0.36828-0.59589-2.4374 0.18474-3.3519 0.93259-0.32487 0.26567-0.97005 0.69682-1.4337 0.95809s-1.0835 0.76847-1.3774 1.1271-0.77583 0.77527-1.071 0.92586c-0.58735 0.29964-1.1067 0.26489-3.3556-0.22453-1.9909-0.43328-2.9749 0.0138-3.4994 1.59-0.17894 0.53771-0.46733 1.0539-0.70793 1.2672-0.2233 0.19794-0.49928 0.58998-0.61329 0.8712-0.33202 0.81895-0.91066 1.5536-1.4544 1.8465-0.72017 0.38796-1.2597 0.86756-1.6056 1.4272-0.26477 0.42841-0.28273 0.57773-0.15225 1.2658 0.12987 0.68476 0.10312 0.91471-0.21893 1.8821-0.20178 0.6061-0.559 1.9895-0.79381 3.0742-0.23482 1.0847-0.67369 3.056-0.97529 4.3806l-0.54835 2.4084 0.24514 1.6821c0.35616 2.4439 0.32142 3.0691-0.28115 5.0602-0.2888 0.95428-0.59608 1.8213-0.68283 1.9268-0.11034 0.13409-0.49034 0.18053-1.2645 0.15453-0.84765-0.02847-1.1963 0.02165-1.4891 0.2141-0.50212 0.33004-1.4324 1.4474-1.966 2.3615-0.39002 0.66806-0.43097 0.87148-0.47944 2.3817l-0.053 1.6513-0.93053 0.43965c-0.51178 0.24181-0.92411 0.48485-0.91626 0.54008 0.0655 0.4612-0.48295 1.0545-0.879 0.95093-0.15709-0.04108-0.51673-0.44647-0.79921-0.90086-0.28247-0.45439-0.89606-1.1973-1.3635-1.6509-0.73818-0.71626-1.0608-0.90361-2.4531-1.4245-1.4411-0.53912-1.6951-0.69092-2.513-1.5015-0.50041-0.49597-0.86998-0.96626-0.82126-1.0451 0.04985-0.08065 0.01353-0.09694-0.08307-0.03724-0.09619 0.05945-0.36796-0.0591-0.61819-0.26965-0.2456-0.20666-0.6101-0.41679-0.81001-0.46696-0.5228-0.13122-1.1413 0.5191-1.4978 1.5749-0.15907 0.47103-0.38302 0.95022-0.49767 1.0649-0.11465 0.11465-0.74317 0.30989-1.3967 0.43386-1.2109 0.2297-1.8188 0.4808-3.0415 1.2562-0.90793 0.57579-1.3654 0.56989-1.7152-0.02213-0.52684-0.89187-0.72851-1.0024-1.8282-1.0024-0.97589 0-1.0608-0.02976-2.2932-0.80349-1.2306-0.77262-1.8335-0.9683-2.0257-0.6574-0.04966 0.08035-0.34077 0.14609-0.64691 0.14609-0.52972 0-0.561-0.02648-0.64717-0.54784-0.0498-0.30131-0.09128-1.0678-0.09216-1.7033-0.0015-1.0702-0.04967-1.2535-0.65271-2.4835-0.3581-0.73041-0.74086-1.6321-0.85056-2.0039-0.1097-0.37172-1.1808-2.5237-2.3803-4.7821l-2.1808-4.1063-1.1447-0.44056c-0.62957-0.24231-1.2891-0.44056-1.4657-0.44056-0.17655 0-0.76214 0.23425-1.3013 0.52055-0.55041 0.29227-1.0608 0.4742-1.1639 0.41485-0.10099-0.05814-0.13339-0.05042-0.072 0.01715 0.06139 0.06757-0.06301 0.30513-0.27645 0.52791-0.33778 0.35257-0.37675 0.48757-0.30077 1.0419 0.04801 0.35026 0.2268 0.96143 0.39732 1.3582 0.30333 0.70573 0.30454 0.7395 0.05593 1.5631-0.13975 0.46297-0.3412 0.91406-0.44767 1.0024-0.32412 0.26899-0.94592 0.0013-1.8738-0.80643-0.48409-0.42146-0.96093-0.81394-1.0596-0.87218-0.19816-0.11691-1.0623 0.45428-1.0623 0.70218 0 0.08546 0.29561 0.31221 0.65691 0.50388 0.97002 0.51459 1.5344 1.4392 1.5344 2.5136 0 0.92058 0.22859 1.2612 1.3642 2.0326 0.32064 0.21781 0.92251 0.9586 1.4982 1.8441 0.5452 0.83849 1.1193 1.5515 1.3244 1.645 0.24778 0.1129 0.5387 0.54507 0.92138 1.3687 0.38149 0.82113 0.82041 1.4739 1.3808 2.0536 0.45186 0.46744 0.92951 1.0146 1.0614 1.216 0.13193 0.20135 0.62525 0.6278 1.0963 0.94766 0.47102 0.31986 0.81798 0.64372 0.77102 0.7197-0.04695 0.07597-0.0226 0.13813 0.05411 0.13813 0.07672 0 0.3537 0.33384 0.61553 0.74185 0.60247 0.93886 0.92555 1.1462 2.0295 1.3022 0.61454 0.08686 1.0287 0.2423 1.3371 0.50179 0.24573 0.20677 0.58965 0.37622 0.76427 0.37656 0.17462 2.93e-4 0.61332 0.19728 0.97489 0.43764 0.36157 0.24036 0.76015 0.4373 0.88573 0.43764 0.12558 2.92e-4 0.41582 0.19633 0.64498 0.43552 0.22916 0.23919 0.63382 0.50656 0.89925 0.59416 0.36158 0.11933 0.61971 0.38577 1.0294 1.0625 0.30075 0.49679 0.82043 1.1991 1.1548 1.5607 0.66001 0.7136 0.99256 1.6263 1.1297 3.1006 0.04278 0.45994 0.11946 0.90369 0.17039 0.9861 0.05094 0.08241 0.38267 0.14984 0.73718 0.14984h0.64458l0.31523 1.0591c0.37251 1.2516 0.69691 1.8234 1.6004 2.8211 0.36826 0.40666 0.81659 1.0431 0.99628 1.4142l0.3267 0.67488-0.29577 0.57976c-0.16267 0.31887-0.51662 0.71625-0.78654 0.88307-0.82317 0.50875-0.86511 0.74232-0.81651 4.5471l0.04385 3.4331-0.41274 1.0226c-0.22701 0.56244-0.50361 1.2002-0.61468 1.4173-0.15636 0.30559-0.16469 0.47643-0.03689 0.75692 0.16032 0.35187 0.34974 0.42423 1.9787 0.75589 0.17459 0.03555 0.51973 0.23485 0.76697 0.44288l0.44953 0.37825v1.6743c0 2.0117-0.16081 2.4415-1.0085 2.6954-0.60039 0.17988-0.89064 0.58549-0.89064 1.2446 0 0.70749 0.7749 3.0645 1.4597 4.4398 0.82194 1.6508 2.1288 5.1997 2.269 6.1614 0.092 0.63122 0.0596 0.73543-0.42671 1.3723-0.28945 0.37909-0.52687 0.76197-0.5276 0.85085-0.0061 0.74471-0.49149 4.1109-0.67633 4.6904-0.23516 0.73728-1.4354 2.1839-1.6843 2.0301-0.06684-0.0413-0.12152-7e-3 -0.12152 0.0753 0 0.0827-0.19736 0.43175-0.43857 0.77559l-0.43857 0.62515 0.20938 1.2846c0.16103 0.98798 0.1734 1.4781 0.05357 2.1225-0.12854 0.69122-0.11197 0.99048 0.09471 1.7102 0.2104 0.73267 0.38898 1.0018 1.1152 1.6807 0.82631 0.77247 0.89456 0.89239 1.5382 2.7027 0.93912 2.6412 1.4834 4.7842 1.7385 6.844 0.11995 0.96891 0.2192 1.8294 0.22056 1.9121 0.0013 0.0828 0.13929-0.0632 0.30652-0.32433 0.37661-0.58807 0.61127-0.59495 1.2473-0.0365 0.27454 0.24105 0.62447 0.43827 0.77763 0.43827s0.3191 0.0657 0.36876 0.14609c0.04966 0.0804 0.19786 0.14609 0.32933 0.14609 0.13147 0 0.42342 0.17665 0.64878 0.39255 0.33241 0.31847 0.40974 0.51913 0.40974 1.0632 0 0.36883-0.09932 0.8124-0.2207 0.9857-0.30694 0.43821 0.0034 0.59796 0.41413 0.21318 0.23888-0.22378 0.38142-0.26209 0.57354-0.15413 0.14061 0.079 0.25566 0.21739 0.25566 0.30751 0 0.24611 0.45354 0.69816 0.70046 0.69816 0.1193 0 0.29338-0.10458 0.38685-0.2324 0.27233-0.37243 1.4479-0.1336 1.9474 0.39565 0.30193 0.3199 0.53035 0.42111 0.95035 0.42111 0.3567 0 0.58274 0.0778 0.63699 0.21914 0.1308 0.34087 0.29347 0.26612 0.80433-0.36958z"/>
   <path d="m30.566 282.28c0.13902-0.16752 0.14176-0.26746 0.0116-0.42429-0.09365-0.11284-0.13034-0.36424-0.08154-0.55867 0.05784-0.23048 0.0092-0.41954-0.1398-0.54318-0.12569-0.10432-0.22853-0.27792-0.22853-0.38578 0-0.32977-0.55363-0.52107-1.2192-0.42126-0.76419 0.11459-1.0164-0.11161-0.88078-0.78986 0.05084-0.25423 0.14969-0.49761 0.21966-0.54085 0.17581-0.10867 0.16052-1.0462-0.01887-1.1571-0.23126-0.14294-0.17665-1.0931 0.06823-1.1871 0.39215-0.15049 1.0238 0.18089 1.3196 0.69227 0.36753 0.63539 0.841 0.58477 2.0268-0.21668 0.39879-0.26952 0.41565-0.3242 0.3365-1.0911-0.06978-0.67607-0.15587-0.86415-0.5294-1.1565-0.24534-0.19201-0.44816-0.45938-0.45071-0.59418-0.0059-0.3114-0.28616-0.67352-0.6175-0.79785-0.14131-0.053-0.33264-0.26261-0.4252-0.46573-0.09255-0.20314-0.27277-0.37033-0.40048-0.37154-0.60531-6e-3 -1.3627-0.41942-1.7138-0.93613l-0.37211-0.5476-0.31692 0.29772c-0.17431 0.16375-0.57898 0.41025-0.89928 0.54776-0.55668 0.239-0.56631 0.25408-0.21831 0.34198 0.50674 0.12801 0.74076 0.67014 0.69638 1.6133-0.03572 0.75915-0.0602 0.80606-0.44364 0.85011-0.33979 0.039-0.43126-0.0263-0.56213-0.40175-0.08597-0.2466-0.23204-0.44595-0.32462-0.44298-0.30423 0.01-2.0582 0.39739-2.5058 0.55385-0.24105 0.0843-0.71766 0.23354-1.0591 0.3317-0.64741 0.18609-0.81778 0.4844-0.34696 0.60752 0.23346 0.0611 0.27392 0.21625 0.27392 1.0506 0 1.1471 0.14423 1.3769 0.65439 1.0426 0.76476-0.5011 1.5708 0.0492 2.1753 1.4849 0.10994 0.26113 0.29127 0.47479 0.40294 0.47479 0.11168 0 0.465 0.0785 0.78516 0.1744 0.47756 0.14308 0.62895 0.28369 0.8429 0.7828 0.24264 0.56607 0.31006 0.61527 0.96877 0.70694 0.79651 0.11087 1.0871 0.29058 1.6022 0.9909 0.30207 0.4107 0.62823 0.61604 1.0966 0.69045 0.05042 8e-3 0.17352-0.084 0.27354-0.20457z"/>
   <path d="m27.271 191.73c-0.11626-0.30295-0.0337-0.69767 0.15366-0.7346 0.20366-0.0402 0.27758 0.62858 0.0902 0.81597-0.1075 0.10749-0.18077 0.083-0.24386-0.0814z"/>
  </g>
 </g>
</svg>
